<?xml version="1.0" standalone="no"?>
<!DOCTYPE svg PUBLIC "-//W3C//DTD SVG 1.1//EN" "http://www.w3.org/Graphics/SVG/1.1/DTD/svg11.dtd" >
<svg xmlns="http://www.w3.org/2000/svg">
<metadata></metadata>
<defs>
<font id="clio_semi_boldsemibold" horiz-adv-x="1253" >
<font-face units-per-em="2048" ascent="1536" descent="-512" />
<missing-glyph horiz-adv-x="432" />
<glyph unicode="&#xfb01;" horiz-adv-x="1308" d="M45 862v160h156v111q0 88 19.5 143.5t64.5 86t105 41.5t155 11q100 0 182 -8v-152h-154q-80 0 -103 -10q-41 -23 -42 -106v-117h735v-1022h-235v862h-500v-862h-227v862h-156zM913 1260q0 42 3 62t17.5 34.5t38.5 18t72 3.5q89 0 110.5 -18.5t21.5 -99.5q0 -75 -23 -98 t-109 -23q-88 0 -109.5 22t-21.5 99z" />
<glyph unicode="&#xfb02;" horiz-adv-x="1298" d="M45 862v160h156v111q0 88 19.5 143.5t64.5 86t105 41.5t155 11q497 0 579 -8v-1163q0 -25 1 -37.5t6.5 -31.5t16.5 -29t33 -20t54 -15v-117q-66 -10 -88 -10q-59 0 -102.5 13t-79 44.5t-54 91.5t-18.5 148v974h-320q-80 0 -103 -10q-41 -23 -42 -106v-117h242v-160h-242 v-862h-227v862h-156z" />
<glyph unicode="&#xfb03;" horiz-adv-x="2115" d="M45 862v160h156v111q0 88 19.5 143.5t64.5 86t105 41.5t155 11q100 0 182 -8v-152h-154q-80 0 -103 -10q-41 -23 -42 -106v-117h580v111q0 88 19.5 143.5t64.5 86t105 41.5t155 11q100 0 182 -8v-152h-154q-80 0 -103 -10q-41 -23 -42 -106v-117h735v-1022h-235v862h-500 v-862h-227v862h-580v-862h-227v862h-156zM1720 1260q0 42 3 62t17.5 34.5t38.5 18t72 3.5q89 0 110 -18.5t21 -99.5q0 -75 -22.5 -98t-108.5 -23q-88 0 -109.5 22t-21.5 99z" />
<glyph unicode="&#xfb04;" horiz-adv-x="2103" d="M45 862v160h156v111q0 88 19.5 143.5t64.5 86t105 41.5t155 11q100 0 182 -8v-152h-154q-80 0 -103 -10q-41 -23 -42 -106v-117h580v111q0 88 19.5 143.5t64.5 86t105 41.5t155 11q497 0 579 -8v-1163q0 -25 1 -37.5t6.5 -31.5t16.5 -29t33 -20t54 -15v-117 q-66 -10 -88 -10q-59 0 -102.5 13t-79 44.5t-54 91.5t-18.5 148v974h-320q-80 0 -103 -10q-41 -23 -42 -106v-117h242v-160h-242v-862h-227v862h-580v-862h-227v862h-156z" />
<glyph horiz-adv-x="2048" />
<glyph horiz-adv-x="2048" />
<glyph unicode="&#xd;" horiz-adv-x="2048" />
<glyph unicode=" "  horiz-adv-x="432" />
<glyph unicode="&#x09;" horiz-adv-x="432" />
<glyph unicode="&#xa0;" horiz-adv-x="432" />
<glyph unicode="!" horiz-adv-x="499" d="M131 102q0 70 20 89.5t97 19.5q74 0 94 -19t20 -90q0 -66 -20 -86t-94 -20q-77 0 -97 19.5t-20 86.5zM131 342v1028h229v-1028h-229z" />
<glyph unicode="&#x22;" horiz-adv-x="765" d="M92 940l68 434h229l-106 -434h-191zM389 940l88 434h236l-123 -434h-201z" />
<glyph unicode="#" horiz-adv-x="1191" d="M98 272v129h228v234h-228v139h228v273h172v-273h164v273h169v-273h230v-139h-230v-234h230v-129h-230v-276h-169v276h-164v-276h-172v276h-228zM498 401h164v234h-164v-234z" />
<glyph unicode="$" horiz-adv-x="1001" d="M63 825q0 140 85.5 215.5t226.5 85.5v191h192v-193q226 -9 271 -18v-170q-212 18 -402 18q-65 0 -96 -26.5t-31 -83.5q0 -38 33 -70t85 -57t115.5 -51t127 -59t115.5 -73.5t85 -101t33 -135.5q0 -147 -92.5 -222.5t-243.5 -80.5v-187h-192v191q-197 6 -246 18v172 q187 -20 375 -20q75 0 112 26t37 85q0 42 -32.5 76.5t-84.5 59.5t-115 49.5t-126 56t-115 70t-84.5 98.5t-32.5 136z" />
<glyph unicode="%" horiz-adv-x="1452" d="M76 1055q0 111 10.5 173t44 97.5t80.5 45t135 9.5q94 0 143.5 -27t73 -96.5t23.5 -201.5q0 -95 -9.5 -152.5t-37 -98t-76 -56t-127.5 -15.5q-62 0 -100 6t-72 24.5t-51.5 54.5t-27 93.5t-9.5 143.5zM231 0l791 1366h190l-790 -1366h-191zM250 1018q0 -102 12.5 -129 t73.5 -27q24 2 31 3t20.5 7.5t16.5 16.5t8 33t5.5 54t0.5 81q0 125 -15.5 160.5t-70.5 35.5q-58 0 -70 -32.5t-12 -163.5v-39zM858 313q0 74 4.5 124.5t17.5 88t31 59t51 34t70.5 16.5t95.5 4q93 0 143 -27t73.5 -97t23.5 -202q0 -95 -9.5 -152.5t-37 -98t-76 -56.5 t-127.5 -16q-52 0 -86 4t-65.5 16t-50 34t-33 58t-20 87.5t-5.5 123.5zM1030 276q0 -101 12.5 -128t73.5 -27q20 2 24.5 2t18.5 3.5t16 7.5t9.5 14t8 22.5t4 34t3.5 47v63.5q0 125 -15.5 161t-70.5 36q-58 0 -71 -33.5t-13 -163.5v-39z" />
<glyph unicode="&#x26;" horiz-adv-x="1099" d="M115 330v82q0 81 41.5 159t113.5 111q-52 33 -82.5 64.5t-49.5 80.5t-23 119v86q0 332 448 332q131 0 324 -31v-149q-248 22 -328 22q-117 0 -163 -45t-46 -143v-70q0 -184 195 -184h149v98h217v-98h99v-166h-99v-573q-209 -41 -346 -41q-240 0 -342 81t-108 265z M350 338q0 -199 221 -199q46 0 123 15v444h-149q-95 0 -145 -41.5t-50 -142.5v-76z" />
<glyph unicode="'" horiz-adv-x="473" d="M88 940l82 434h233l-116 -434h-199z" />
<glyph unicode="(" horiz-adv-x="555" d="M68 608q0 159 27 328t93.5 350t163.5 307l160 -116q-112 -208 -163.5 -442t-51.5 -427q0 -513 213 -868l-154 -119q-144 188 -216 462t-72 525z" />
<glyph unicode=")" horiz-adv-x="557" d="M31 1479l162 114q96 -126 162.5 -306.5t94 -350t27.5 -328.5q0 -251 -72 -523.5t-215 -459.5l-155 115q211 360 211 868q0 196 -51 429t-164 442z" />
<glyph unicode="*" horiz-adv-x="933" d="M70 1087l45 154l252 -88v262h176v-262l248 86l49 -152l-256 -75l159 -209l-129 -107l-157 215l-154 -215l-133 107l154 209z" />
<glyph unicode="+" horiz-adv-x="1036" d="M76 422v168h323v334h219v-334h326v-168h-326v-346h-219v346h-323z" />
<glyph unicode="," horiz-adv-x="499" d="M92 -72q58 30 80 76q-43 7 -56.5 35t-13.5 90q0 81 23 102t117 21q91 0 113 -21t22 -102q0 -98 -54 -169t-159 -132z" />
<glyph unicode="-" horiz-adv-x="784" d="M113 479v183h534v-183h-534z" />
<glyph unicode="." horiz-adv-x="501" d="M100 125q0 83 23 104t117 21q93 0 116 -20.5t23 -104.5q0 -43 -3.5 -64t-18 -38t-41.5 -22t-76 -5t-75.5 5t-41.5 21t-19 38t-4 65z" />
<glyph unicode="/" horiz-adv-x="833" d="M49 -225l492 1591h233l-495 -1591h-230z" />
<glyph unicode="0" horiz-adv-x="1089" d="M115 561q0 119 6 200t23.5 149t45.5 108t75.5 68t110 38.5t152.5 10.5q91 0 155.5 -11.5t112 -40.5t76 -69.5t45.5 -109t23 -147.5t6 -196q0 -119 -6 -199.5t-23.5 -149.5t-46 -109.5t-76 -69.5t-111.5 -40t-155 -11t-154.5 11t-110.5 40.5t-75 70t-45 110t-22.5 149 t-5.5 198.5zM344 561q0 -93 2 -148.5t9 -106t18 -75.5t32.5 -44.5t50 -25t72.5 -5.5t73 6t51.5 25t34 44t19 75.5t9.5 106.5t2 148q0 94 -2 151t-9.5 107t-19 74.5t-34 43t-51 23.5t-73.5 5q-44 0 -72.5 -5.5t-50 -25t-32.5 -44t-18 -75.5t-9 -106t-2 -148z" />
<glyph unicode="1" horiz-adv-x="688" d="M31 942v184h495v-1126h-237v944z" />
<glyph unicode="2" horiz-adv-x="935" d="M111 950v164l297 6q65 0 113 -4t98 -14t84.5 -30.5t62.5 -51.5t41.5 -78.5t13.5 -110.5q0 -51 -24 -109.5t-70.5 -126t-93 -126t-115 -143t-112.5 -144.5h403v-172h-680l4 154q73 97 161.5 210t131.5 168t85.5 116.5t58.5 101t16 74.5q0 65 -36 93.5t-114 28.5 q-54 0 -161.5 -3t-163.5 -3z" />
<glyph unicode="3" horiz-adv-x="985" d="M94 -76q43 0 128.5 -2t127.5 -2q140 0 202 43t62 148v71q0 98 -47 139t-137 41h-231v162h231q184 0 184 178v84q0 48 -14 82t-36 53t-58.5 29t-71 13t-84.5 2l-256 -4v155l271 8q65 0 109 -2t99 -9t91.5 -20t74 -37t59.5 -57.5t36 -83.5t14 -114v-103q-4 -98 -40 -153 t-112 -101q74 -33 113 -108t39 -156v-78q0 -100 -28 -166t-90.5 -104.5t-150.5 -54t-221 -15.5h-34q-36 0 -114.5 2.5t-115.5 2.5v157z" />
<glyph unicode="4" horiz-adv-x="1136" d="M39 186v148l518 788h305v-762h201v-174h-201v-411h-225v411h-598zM299 360h340v533z" />
<glyph unicode="5" horiz-adv-x="962" d="M123 -88h235q145 0 208 41t63 151v78q0 114 -42.5 150.5t-152.5 36.5h-307v753h670v-180h-447v-412h94q107 0 180.5 -15t118.5 -41t69.5 -73t33 -100t8.5 -133v-74q0 -98 -30 -163.5t-95.5 -104t-157 -54.5t-225.5 -16q-80 0 -149.5 1t-73.5 1v154z" />
<glyph unicode="6" horiz-adv-x="1083" d="M119 334q0 610 10 708q21 175 124 253.5t333 78.5q34 0 327 -20v-172q-255 20 -327 16q-36 -3 -61 -5.5t-48.5 -10t-38.5 -13.5t-28.5 -23t-21 -29.5t-14 -42.5t-9.5 -53t-5 -70t-2 -84.5v-104.5q110 20 217 20q116 0 195.5 -22t125 -67t64.5 -105.5t19 -145.5v-94 q0 -364 -424 -364q-228 0 -332 90t-104 260zM358 330q0 -98 49.5 -136t147.5 -38q101 0 142.5 44t41.5 144v105q0 90 -34 126.5t-132 36.5q-106 0 -215 -32v-250z" />
<glyph unicode="7" horiz-adv-x="874" d="M12 944v180h801l-250 -1347h-229l219 1167h-541z" />
<glyph unicode="8" horiz-adv-x="1128" d="M109 328v84q0 85 43.5 163.5t119.5 110.5q-76 48 -110.5 105.5t-34.5 160.5v86q0 83 21 144t56 98.5t88 60t108.5 31.5t127.5 10q79 0 138 -6.5t118.5 -28t97.5 -58t61.5 -99.5t23.5 -150v-86q0 -101 -36 -159t-112 -107q78 -34 121 -111.5t43 -162.5v-82 q0 -186 -104 -269t-316 -83q-235 0 -344.5 76.5t-109.5 271.5zM336 338q0 -94 50.5 -145.5t145.5 -51.5q224 0 224 199v76q0 186 -193 186h-31q-196 0 -196 -188v-76zM350 952q0 -184 178 -184h33q182 0 182 186v70q0 114 -44 153.5t-136 39.5q-44 0 -72 -3t-58 -14 t-46 -31.5t-26.5 -57t-10.5 -89.5v-70z" />
<glyph unicode="9" horiz-adv-x="1083" d="M72 686v94q0 365 424 365q228 0 332 -90t104 -260q0 -611 -10 -709q-21 -175 -124 -253.5t-333 -78.5q-20 0 -328 21v172q213 -17 328 -17q165 3 196.5 58.5t30.5 296.5v27v25.5v29.5q-116 -21 -217 -21q-116 0 -195.5 22t-124.5 67t-64 105.5t-19 145.5zM311 680 q0 -90 34 -127t132 -37q103 0 215 33v250q0 99 -49 136.5t-147 37.5q-101 0 -143 -44.5t-42 -144.5v-104z" />
<glyph unicode=":" horiz-adv-x="528" d="M113 125q0 83 22.5 104t116.5 21q93 0 116 -20.5t23 -104.5q0 -43 -3.5 -64t-18 -38t-41.5 -22t-76 -5t-75.5 5t-41.5 21.5t-18.5 38t-3.5 64.5zM113 745q0 44 3.5 65t18.5 36.5t41 19.5t76 4q93 0 116 -20.5t23 -104.5q0 -44 -3.5 -65.5t-18 -38.5t-41.5 -22t-76 -5 t-75.5 5t-41.5 21.5t-18.5 38.5t-3.5 66z" />
<glyph unicode=";" horiz-adv-x="532" d="M111 -72q56 29 79 76q-43 7 -56 35t-13 90q0 81 22.5 102t116.5 21q91 0 113 -21t22 -102q0 -98 -54 -169t-159 -132zM119 745q0 44 3.5 65t18.5 36.5t41 19.5t76 4q93 0 116 -20.5t23 -104.5q0 -44 -3.5 -65.5t-18 -38.5t-41.5 -22t-76 -5t-75.5 5t-41.5 21.5 t-18.5 38.5t-3.5 66z" />
<glyph unicode="&#x3c;" horiz-adv-x="1134" d="M70 438v127l919 359v-191l-631 -231l629 -234v-192z" />
<glyph unicode="=" horiz-adv-x="1095" d="M129 258v174h815v-174h-815zM129 575v175h815v-175h-815z" />
<glyph unicode="&#x3e;" horiz-adv-x="1134" d="M123 731v193l921 -361v-127l-919 -362v194l627 234z" />
<glyph unicode="?" horiz-adv-x="931" d="M76 1223v161h250q54 0 91 -1t85.5 -4.5t82 -10t72.5 -18.5t65 -28.5t52.5 -41.5t41.5 -57t24.5 -75t9.5 -95v-52q0 -187 -101 -267.5t-346 -80.5v-256h-223v426h240q92 0 140 42.5t48 138.5v32q0 55 -13 91.5t-29 55.5t-55.5 28t-67.5 10.5t-90 1.5h-15h-262zM174 102 q0 70 20 89.5t97 19.5q74 0 94.5 -19t20.5 -90q0 -66 -20 -86t-95 -20q-77 0 -97 19.5t-20 86.5z" />
<glyph unicode="@" horiz-adv-x="1472" d="M106 592q0 99 4.5 173t16 148t33 127t55 101.5t81.5 80t112.5 56t149 35t190.5 10.5q144 0 247 -22t173 -65t111 -115.5t58 -165t17 -222.5q0 -144 -18 -241t-56 -153t-89 -80t-124 -26q-142 0 -213 95q-96 -41 -195 -41q-123 0 -174 73t-51 238q0 83 6.5 142t25.5 113.5 t51 87.5t85 52t127 19q109 0 279 -37l-23 -580q24 -30 62 -30q28 0 49.5 15t34 45t20.5 60t11 76t4 76t1 76q0 77 -3.5 129.5t-13.5 104t-29 84t-49.5 61.5t-75.5 44.5t-106 24t-142 8.5q-62 0 -112.5 -4.5t-92.5 -15.5t-74 -25.5t-57 -38.5t-43 -49.5t-30.5 -64 t-20.5 -76.5t-12 -92.5t-5.5 -106t-1.5 -123.5q0 -227 99 -316t333 -89h201q-1 -25 -3 -77.5t-3 -78.5h-240q-306 0 -443 133.5t-137 446.5zM608 635q0 -114 15 -156.5t55 -42.5q76 0 147 31q3 65 9.5 197.5t9.5 197.5q-51 6 -115 6q-70 0 -95.5 -53t-25.5 -180z" />
<glyph unicode="A" d="M4 0l434 1366h334l440 -1366h-235l-111 346h-512l-106 -346h-244zM408 514h403l-205 645z" />
<glyph unicode="B" horiz-adv-x="1171" d="M145 0v1368h383q65 0 114 -2.5t104.5 -11t96 -23t79.5 -40.5t63 -61.5t38.5 -87t14.5 -116.5v-88q0 -96 -35.5 -150.5t-111.5 -101.5q70 -32 108.5 -108t38.5 -156v-82q0 -101 -29 -167t-94.5 -104.5t-157 -53.5t-229.5 -15h-383zM383 160h158q137 0 199.5 42.5 t62.5 147.5v74q0 96 -47 133t-140 37h-233v-434zM383 770h233q92 0 139.5 39t47.5 131v70q0 46 -7.5 79t-25 54.5t-37 34.5t-53.5 19t-63 7.5t-76 1.5h-158v-436z" />
<glyph unicode="C" horiz-adv-x="1153" d="M98 614v80.5v69.5q1 64 5.5 133t13.5 118.5t23.5 100t36 85t51 67.5t68.5 54t88 37t109.5 23t133.5 7q39 0 170 -10t241 -25v-166q-310 26 -376 26q-47 0 -84.5 -4t-68.5 -15.5t-54 -24t-41.5 -38t-30.5 -48.5t-21 -65t-14 -77.5t-8 -96t-4 -110.5t-2 -131v-37 q0 -63 2 -113q4 -64 20 -112t28 -80t48 -53.5t59.5 -32.5t83 -16.5t97.5 -6.5t122 -1h21q39 1 116 4t116 4v-142q-172 -36 -420 -36q-76 0 -131 4t-109.5 15.5t-91.5 31.5t-71.5 53t-55.5 79.5t-37.5 111.5t-24 147.5t-8.5 189.5z" />
<glyph unicode="D" horiz-adv-x="1288" d="M145 0v1366l510 4q95 0 163.5 -11t128.5 -40t98.5 -78t66 -126.5t39.5 -184.5t12 -252q0 -141 -10 -243t-34 -179t-59.5 -125.5t-92 -78t-125 -41t-164.5 -11.5h-533zM383 170l285 -2q50 2 84.5 9.5t65.5 28.5t50 56t33 91.5t19.5 135.5t5.5 189q0 120 -5 202.5 t-18.5 143t-31 95t-49.5 54.5t-68 26q-30 5 -75 5h-15h-281v-1034z" />
<glyph unicode="E" horiz-adv-x="1128" d="M145 0v1368h863v-180h-625v-402h571v-182h-571v-426h625v-178h-863z" />
<glyph unicode="F" horiz-adv-x="1085" d="M145 0v1366h873v-176h-635v-408h545v-178h-545v-604h-238z" />
<glyph unicode="G" horiz-adv-x="1175" d="M100 614v80.5v69.5q1 65 5.5 133.5t13.5 118t23.5 100t36 85t51 67.5t68.5 54t88 37t109.5 23t133.5 7q39 0 170 -10t241 -25v-166q-310 26 -376 26q-47 0 -84.5 -4t-68.5 -15.5t-54 -24t-41.5 -38t-30.5 -48.5t-21 -65t-14 -77.5t-8 -96t-4 -110.5t-2 -131v-33 q0 -65 3 -117q4 -64 18 -111.5t25.5 -80t42.5 -54t52 -33t70.5 -16.5t81 -6t99.5 -1h17h72v352h-219v143h451v-629q-172 -36 -420 -36q-76 0 -131 4t-109.5 15.5t-91.5 31.5t-71.5 53t-55.5 79.5t-37.5 111.5t-24 147.5t-8.5 189.5z" />
<glyph unicode="H" horiz-adv-x="1327" d="M145 0v1368h240v-584h539v584h239v-1368h-239v612h-539v-612h-240z" />
<glyph unicode="I" horiz-adv-x="536" d="M145 0v1366h238v-1366h-238z" />
<glyph unicode="J" horiz-adv-x="684" d="M43 -10v155q23 4 58 1q15 -1 31 -1q22 0 45 2q41 4 76.5 12.5t59 35.5t23.5 69v1102h229v-1096q0 -90 -19.5 -148t-64 -90.5t-107.5 -43.5q-43 -8 -101 -8q-27 0 -56 2z" />
<glyph unicode="K" horiz-adv-x="1206" d="M145 0v1368h236v-590h164l350 590h260l-401 -661l422 -707h-258l-367 608h-170v-608h-236z" />
<glyph unicode="L" horiz-adv-x="1026" d="M145 0v1366h238v-1188h594v-178h-832z" />
<glyph unicode="M" horiz-adv-x="1656" d="M145 0v1368h291l379 -825l379 825h297v-1368h-227v1012l-349 -758h-202l-336 758v-1012h-232z" />
<glyph unicode="N" horiz-adv-x="1368" d="M145 0v1368h279l541 -1020l2 1020h233v-1368h-295l-530 997v-997h-230z" />
<glyph unicode="O" horiz-adv-x="1288" d="M121 682q0 152 6.5 251t27.5 184t54.5 132t93 80.5t137.5 45t193 11.5q70 0 126 -4t104 -15t84 -26t66 -40.5t50.5 -54.5t36 -72.5t25 -90t15 -112t7.5 -132.5t2 -157q0 -114 -3 -194.5t-13.5 -155.5t-26.5 -123.5t-44 -91t-64.5 -66.5t-91 -41.5t-120 -23.5t-153.5 -6 q-87 0 -152.5 7t-119 25.5t-90.5 43t-64.5 68t-43.5 92t-26 123t-13 153t-3 190.5zM356 682q0 -74 0.5 -123t3 -102.5t6.5 -86t12 -68.5t18 -55.5t26 -40.5t35.5 -30.5t46 -18.5t58 -11.5t71.5 -2.5q51 0 87 3.5t66.5 16.5t50 29t35 49t23 68t12.5 95.5t6.5 121.5t1.5 156 t-1 155.5t-6 121.5t-13 96t-23 69t-34.5 50t-50 29.5t-67 17.5t-87.5 4t-87.5 -4t-67 -18.5t-49.5 -30t-33.5 -51.5t-21.5 -69t-11.5 -96.5t-5.5 -120.5t-1 -153z" />
<glyph unicode="P" horiz-adv-x="1204" d="M145 0v1366h514q102 0 181.5 -16t145 -53t101 -105.5t35.5 -165.5v-162q0 -123 -89 -218.5t-226 -115.5q-44 -6 -101.5 -7t-320.5 -1v-522h-240zM385 690h266q53 0 91 6t74.5 23.5t55.5 53.5t19 91v160q0 56 -19.5 93t-56.5 54.5t-74.5 24t-89.5 6.5h-266v-512z" />
<glyph unicode="Q" horiz-adv-x="1273" d="M106 682q0 152 6.5 251t27.5 184t54.5 132t93 80.5t137.5 45t193 11.5q70 0 126 -4t104 -15t84 -26t66 -40.5t50.5 -54.5t36.5 -72.5t25 -90t15 -112t8 -132.5t2 -157q0 -115 -3.5 -194.5t-13 -154t-26.5 -123t-45 -89.5t-67 -66t-93 -41l151 -63l-73 -174l-478 211 q-73 7 -126.5 23t-95 41t-69 67t-45.5 91t-28 123.5t-13.5 154.5t-3.5 194zM342 682q0 -76 0.5 -123t3 -102t6.5 -87t11.5 -68.5t17.5 -55.5t26 -40t35 -30.5t46 -18.5t58 -11.5t72 -2.5q51 0 87 3.5t67 16.5t50 29t34.5 49t23.5 68t13 95.5t6.5 122t1.5 155.5 q0 75 -1 126.5t-3.5 105t-7 87.5t-13 69t-19 55t-27 40t-36 29.5t-46.5 17.5t-58 10.5t-72 2.5t-72.5 -2.5t-58.5 -11.5t-46 -18t-35 -30.5t-26 -40t-17.5 -56t-11 -68.5t-6 -87.5t-3 -103.5t-0.5 -125z" />
<glyph unicode="R" horiz-adv-x="1249" d="M145 0v1366h525q102 0 181.5 -16t145 -53t101 -105.5t35.5 -165.5v-162q0 -86 -35.5 -151t-110.5 -121l109 -592h-246l-94 526q-47 -4 -371 -4v-522h-240zM385 690h277q41 0 72.5 3.5t64 14t53 29t34 51t13.5 76.5v160q-1 45 -15 78t-35.5 52t-53.5 30t-62.5 14.5 t-70.5 3.5h-277v-512z" />
<glyph unicode="S" horiz-adv-x="1101" d="M72 1024q0 186 108.5 277.5t294.5 91.5q191 0 457 -19v-180q-265 25 -443 25q-93 0 -136.5 -39t-43.5 -123q0 -45 24 -83.5t64.5 -68.5t93 -57.5t111 -54.5t116.5 -57t110.5 -67.5t93 -82t64.5 -106.5t24 -134q0 -184 -110.5 -275t-293.5 -91q-193 0 -456 18v178 q258 -20 442 -20q93 0 135.5 41t42.5 131q0 59 -38.5 107.5t-100 84t-136 70t-149 74t-136 86.5t-100 117.5t-38.5 156.5z" />
<glyph unicode="T" horiz-adv-x="1138" d="M33 1190v176h1050v-176h-403v-1190h-242v1190h-405z" />
<glyph unicode="U" horiz-adv-x="1341" d="M141 682v686h240v-686q0 -94 1 -151t5.5 -119t12 -95.5t22.5 -69t34.5 -51.5t49.5 -30t67.5 -18.5t88.5 -4.5q52 0 88.5 3.5t67.5 16.5t50.5 29t35 49t23.5 68t13 96t6.5 121.5t1.5 155.5v686h238v-686q0 -115 -3.5 -195t-13.5 -155t-26 -123.5t-44.5 -91t-66 -66.5 t-92.5 -41.5t-121.5 -23.5t-156.5 -6q-89 0 -155.5 7t-121 25.5t-92 43t-65.5 68t-44.5 92t-26 123t-13 153t-3.5 190.5z" />
<glyph unicode="V" d="M6 1366h244l358 -1159l371 1159h235l-440 -1366h-334z" />
<glyph unicode="W" horiz-adv-x="1843" d="M31 1366h233l260 -1116l275 1120h221l270 -1122l260 1118h234l-322 -1366h-309l-246 997l-252 -997h-297z" />
<glyph unicode="X" horiz-adv-x="1171" d="M27 0l419 690l-405 676h258l281 -469l284 469h254l-401 -672l418 -694h-254l-299 496l-295 -496h-260z" />
<glyph unicode="Y" horiz-adv-x="1144" d="M-12 1368h268l293 -670l299 670h268l-446 -922v-446h-242v446z" />
<glyph unicode="Z" horiz-adv-x="1148" d="M70 0v164l704 1026h-690v180h960v-172l-696 -1022h713v-176h-991z" />
<glyph unicode="[" horiz-adv-x="612" d="M121 -281v1936h438v-164h-215v-1604h215v-168h-438z" />
<glyph unicode="\" horiz-adv-x="835" d="M49 1364h234l491 -1589h-229z" />
<glyph unicode="]" horiz-adv-x="612" d="M37 -113h213v1604h-213v164h440v-1936h-440v168z" />
<glyph unicode="^" horiz-adv-x="972" d="M66 797l309 587h203l307 -587h-219l-191 389l-186 -389h-223z" />
<glyph unicode="_" horiz-adv-x="1181" d="M113 0h931v-119h-931v119z" />
<glyph unicode="`" horiz-adv-x="677" d="M115 1456l153 80l195 -350l-144 -76z" />
<glyph unicode="a" horiz-adv-x="1034" d="M72 317q0 69 19.5 119.5t52.5 81t84 48.5q52 18 106 24q47 6 106 7q9 0 19 -1l205 -2v170q0 72 -33 92.5t-111 20.5q-123 0 -354 -33q-2 6 -18.5 80.5t-16.5 79.5q215 40 418 40q95 0 155 -11t105.5 -42t65.5 -87.5t20 -145.5v-758h-199l-16 76q-184 -94 -311 -94 q-81 0 -140 25.5t-92.5 72.5t-49 105.5t-15.5 131.5zM297 309q0 -145 94 -145q79 0 273 67v218q-77 0 -125.5 -1.5t-94 -6.5t-70 -14t-44 -25t-26.5 -38.5t-7 -54.5z" />
<glyph unicode="b" horiz-adv-x="1054" d="M125 12v1405h223v-411q57 14 132.5 24t119.5 10q185 0 261.5 -104.5t76.5 -351.5q0 -98 -3.5 -165t-13.5 -135t-29 -111.5t-50 -82.5t-76.5 -60.5t-107.5 -33.5t-144 -12q-174 0 -389 28zM350 158q43 -2 152 -2h8q49 0 82.5 9t55.5 36.5t34 52.5t17.5 83.5t6.5 102 t1 133.5q0 70 -2.5 112.5t-11.5 81.5t-26 58.5t-45.5 31t-70.5 11.5q-79 0 -201 -28v-682z" />
<glyph unicode="c" horiz-adv-x="999" d="M100 461q0 82 2 141t7.5 117t15.5 97.5t25.5 76.5t38.5 59.5t53 42t71 29.5t90.5 15t112.5 5q45 0 166.5 -8.5t202.5 -23.5v-158q-307 23 -342 23q-40 0 -68 -3t-51 -15.5t-37.5 -23.5t-25 -41t-15.5 -53.5t-8 -75.5t-3.5 -92t-0.5 -118q0 -71 5.5 -120t20 -83.5 t32.5 -54.5t52 -30.5t68 -13.5t90 -3q86 0 293 18v-143q-79 -19 -187.5 -31t-191.5 -12q-58 0 -100 3t-85 11.5t-72.5 24t-57 40.5t-45 60.5t-31 84t-19.5 112t-6 143.5z" />
<glyph unicode="d" horiz-adv-x="1048" d="M98 524v62q3 127 19.5 210.5t54 141.5t99 83.5t155.5 25.5q29 0 246 -17v385h229v-1415h-180l-21 72q-176 -84 -290 -84q-163 0 -237.5 126.5t-74.5 409.5zM332 580q0 -235 23.5 -323.5t93.5 -88.5q87 0 223 65v619q-78 16 -205 16h-6q-30 0 -52.5 -11.5t-36.5 -34.5 t-22.5 -47t-12 -62t-4.5 -64.5t-1 -68.5z" />
<glyph unicode="e" horiz-adv-x="1056" d="M100 514q0 111 5.5 183.5t22 137t44.5 101t77 64t115 37.5t162 10q92 0 157 -10t113.5 -36t77.5 -63.5t47 -100.5t24.5 -137.5t6.5 -183.5v-63h-73q-92 -1 -275.5 -2t-275.5 -2q2 -109 12.5 -165.5t38.5 -90.5q18 -23 55.5 -34.5t67.5 -13.5t82 -2q106 0 309 21v-144 q-223 -38 -401 -38q-84 0 -144 11t-104.5 38.5t-71.5 66t-43.5 101t-22.5 136t-6 179.5zM330 608h403q-3 76 -8.5 120t-17 79t-35.5 50.5t-57.5 22.5t-88.5 7t-90.5 -10.5t-56 -28.5t-30.5 -54t-13 -74t-6 -102v-10z" />
<glyph unicode="f" horiz-adv-x="755" d="M45 862v160h156v111q0 88 19.5 143.5t64.5 86t105 41.5t155 11q100 0 182 -8v-152h-154q-80 0 -103 -10q-41 -23 -42 -106v-117h242v-160h-242v-862h-227v862h-156z" />
<glyph unicode="g" horiz-adv-x="1146" d="M94 692q0 91 16.5 151.5t59 105t118 64.5t191.5 21l586 2v-141l-123 -16q31 -73 31 -187q0 -99 -20.5 -166t-64 -105.5t-103.5 -54.5t-146 -16h-250q-12 0 -17 -5.5t-5 -20.5v-27q0 -31 28.5 -44t89.5 -13q27 0 77 2t77 2q70 0 123 -5t111.5 -21.5t96 -45.5t62.5 -81 t25 -124q0 -88 -30 -154.5t-84.5 -106t-125.5 -58.5t-158 -19q-131 0 -277 8.5t-171 8.5v168q252 -17 434 -17q96 0 139 35.5t43 120.5q0 69 -46 95t-128 26q-21 0 -77 -2t-91 -2q-56 0 -100 5t-88.5 20.5t-74 40.5t-48 68t-18.5 101q0 68 32 113q-54 42 -74 105t-20 169z M313 692q0 -107 33.5 -145t124.5 -43h123q88 0 124 47.5t36 153.5q0 107 -34 140.5t-130 33.5h-103q-53 0 -83 -6.5t-52.5 -26.5t-30.5 -56.5t-8 -97.5z" />
<glyph unicode="h" horiz-adv-x="1097" d="M127 0v1401h225v-426q213 63 334 63q270 0 270 -252v-786h-231v776q0 84 -74 84q-151 0 -297 -57v-803h-227z" />
<glyph unicode="i" horiz-adv-x="497" d="M113 1260q0 42 3 62t17.5 34.5t38.5 18t72 3.5q89 0 110 -18.5t21 -99.5q0 -75 -22.5 -98t-108.5 -23q-88 0 -109.5 22t-21.5 99zM127 0v1022h235v-1022h-235z" />
<glyph unicode="j" horiz-adv-x="497" d="M2 -266q75 11 100 45t25 92v1153h231v-1120q0 -71 -12.5 -123.5t-34 -84.5t-54.5 -51.5t-68.5 -26.5t-82.5 -7q-36 0 -104 8v115zM113 1260q0 79 20 98.5t109 19.5t111 -18.5t22 -99.5q0 -75 -23.5 -98t-109.5 -23q-47 0 -71.5 4.5t-38 20t-16.5 35.5t-3 61z" />
<glyph unicode="k" horiz-adv-x="1095" d="M127 0v1399h227v-725h148l268 497h242l-314 -579l365 -592h-248l-311 504h-150v-504h-227z" />
<glyph unicode="l" horiz-adv-x="522" d="M125 281v1116h231v-1153q0 -25 1 -37.5t6.5 -31.5t16.5 -29t33 -20t54 -15v-117q-66 -10 -88 -10q-59 0 -102.5 13t-79 44.5t-54 91.5t-18.5 148z" />
<glyph unicode="m" horiz-adv-x="1687" d="M127 0v1022h192l21 -68q212 88 346 88q118 0 209 -88q82 29 128.5 43.5t117.5 29.5t127 15q274 0 274 -258v-784h-235v770q0 40 -18.5 62t-53.5 22q-46 0 -127.5 -11.5t-153.5 -31.5q0 -133 1 -406t1 -405h-231v776q0 80 -74 80q-47 0 -133.5 -17.5t-159.5 -43.5v-795 h-231z" />
<glyph unicode="n" horiz-adv-x="1101" d="M127 0v1022h192l21 -72q87 34 120.5 46.5t102 29t123.5 16.5q123 0 197.5 -63t74.5 -188v-791h-231v776q0 80 -78 80q-50 0 -134.5 -16.5t-156.5 -44.5v-795h-231z" />
<glyph unicode="o" horiz-adv-x="1091" d="M98 512q0 111 6 185.5t24 138t47 99.5t79 62t116 35.5t162 9.5t163.5 -10t117.5 -36.5t80 -63.5t48 -100t24 -137t6 -183t-6 -183t-24 -137t-48 -100t-80 -63.5t-117.5 -36.5t-163.5 -10q-97 0 -164 10t-116.5 37t-78.5 63.5t-46.5 100.5t-23 136.5t-5.5 182.5zM326 512 q0 -86 2 -136t9.5 -97t20 -70t36.5 -41t56.5 -23.5t81.5 -5.5q37 0 64.5 3t49.5 12.5t37 21t26 34.5t17 47.5t9.5 66t4.5 83t1 105.5q0 87 -2 139.5t-10.5 99.5t-21.5 70.5t-37.5 41.5t-56.5 23t-81 5t-81.5 -5.5t-56.5 -24.5t-36.5 -42t-20 -71t-9.5 -99t-2 -137z" />
<glyph unicode="p" horiz-adv-x="1048" d="M127 -389v1415h180l21 -72q179 84 290 84q163 0 237.5 -126.5t74.5 -409.5v-62q-6 -252 -75.5 -356t-250.5 -104q-40 0 -248 16v-385h-229zM356 174q78 -16 205 -16h6q30 0 52.5 11.5t36.5 34.5t22.5 47t12 62t4.5 64.5t1 68.5q0 235 -23 323.5t-93 88.5q-88 0 -224 -65 v-619z" />
<glyph unicode="q" horiz-adv-x="1056" d="M94 442q0 76 2 131t7 113t15 98t26 80t38.5 66t53.5 49t72 36t92.5 20t115.5 7q147 0 393 -28v-1405h-227v401q-101 -26 -250 -26q-185 0 -261.5 106t-76.5 352zM328 453q0 -81 4 -128t16.5 -87.5t38.5 -57.5t68 -18q17 -1 35 -1q85 0 192 27v672q-31 4 -162 4 q-47 0 -80 -8.5t-54 -35.5t-33 -51.5t-17.5 -82t-6.5 -101t-1 -132.5z" />
<glyph unicode="r" horiz-adv-x="737" d="M127 0v1024h205l12 -74q55 24 94 39t105 31.5t139 23.5v-176q-134 -11 -324 -84v-784h-231z" />
<glyph unicode="s" horiz-adv-x="933" d="M70 760q0 141 92.5 211.5t243.5 70.5q94 0 189 -5t143 -10l48 -5v-166q-188 18 -370 18q-58 0 -85.5 -23t-27.5 -73q0 -30 23.5 -56.5t61.5 -45.5t87 -41.5t100.5 -43t100.5 -51t87 -65.5t61.5 -86.5t23.5 -112.5q0 -141 -93.5 -211.5t-244.5 -70.5q-93 0 -187.5 5 t-142.5 10l-49 5v166q166 -20 346 -20q68 0 100.5 22.5t32.5 75.5q0 38 -30 68.5t-77.5 53.5t-105 46t-115 52t-105 64.5t-77.5 91.5t-30 126z" />
<glyph unicode="t" horiz-adv-x="817" d="M37 862v162h229v252h232v-252h233v-162h-233v-534q0 -82 14 -122t41 -52.5t82 -12.5q70 0 119 2l2 -141q-85 -20 -152 -20q-66 0 -117 10t-87 26t-60.5 45t-39 58.5t-22 75.5t-10 87t-2.5 101v477h-229z" />
<glyph unicode="u" horiz-adv-x="1101" d="M121 229v793h231v-776q0 -82 78 -82q49 0 133.5 17t157.5 46v795h231v-1024h-192l-21 74q-75 -30 -118 -46t-107.5 -31t-120.5 -15q-124 0 -198 62t-74 187z" />
<glyph unicode="v" horiz-adv-x="1028" d="M20 1024h240l248 -776l248 776h235l-346 -1024h-274z" />
<glyph unicode="w" horiz-adv-x="1538" d="M49 1024h230l151 -694l197 694h256l198 -694l154 694h227l-229 -1024h-275l-202 719l-199 -719h-278z" />
<glyph unicode="x" horiz-adv-x="913" d="M41 0l295 508l-285 514h236l170 -328l170 328h235l-284 -514l292 -508h-231l-182 317l-174 -317h-242z" />
<glyph unicode="y" horiz-adv-x="1030" d="M20 1024h238l248 -776l248 776h237l-473 -1413h-209l123 389h-61z" />
<glyph unicode="z" horiz-adv-x="919" d="M74 0v139l452 721h-444v166h719v-143l-453 -713h461v-170h-735z" />
<glyph unicode="{" horiz-adv-x="663" d="M20 635v106q85 60 114.5 111.5t29.5 146.5v361q0 61 8 103.5t30.5 81t62 61.5t104 36t155.5 13h88v-162h-88q-44 0 -70 -6.5t-38.5 -25t-15.5 -39.5t-3 -62v-361q0 -107 -31.5 -178.5t-105.5 -132.5q73 -60 105 -133t32 -178v-359q0 -43 3 -64.5t16 -40t38 -24.5t70 -6 h88v-164h-88q-112 0 -185 20t-110.5 61.5t-51 92t-13.5 125.5v359q0 95 -29.5 146.5t-114.5 111.5z" />
<glyph unicode="|" horiz-adv-x="432" d="M121 -408v1993h180v-1993h-180z" />
<glyph unicode="}" horiz-adv-x="663" d="M35 -117h88q85 0 107 27t22 108v359q0 107 31.5 179.5t105.5 131.5q-74 61 -105.5 133.5t-31.5 177.5v361q0 41 -3.5 62.5t-16.5 39.5t-39 24.5t-70 6.5h-88v162h88q91 0 155.5 -13t104 -36t62 -61.5t30.5 -81t8 -103.5v-361q0 -94 30 -145.5t114 -114.5v-104 q-57 -41 -85.5 -72.5t-43.5 -75.5t-15 -110v-359q0 -75 -13.5 -125.5t-51 -92t-110.5 -61.5t-185 -20h-88v164z" />
<glyph unicode="~" horiz-adv-x="1021" d="M98 549q123 114 228 117q55 1 159.5 -30.5t161.5 -31.5t166 86l92 -121q-40 -58 -114.5 -93.5t-137.5 -35.5q-70 0 -127 15.5t-97 31t-69 15.5q-69 0 -170 -88q-12 19 -46 68t-46 67z" />
<glyph unicode="&#xa1;" horiz-adv-x="471" d="M117 -395v1120h229v-1120h-229zM117 963q0 67 20 87.5t96 20.5q74 0 94.5 -21t20.5 -87q0 -71 -20.5 -90t-94.5 -19q-77 0 -96.5 19.5t-19.5 89.5z" />
<glyph unicode="&#xa2;" horiz-adv-x="1052" d="M111 623q0 98 3 165t11 131t23.5 104.5t39.5 76t59.5 55t83 32.5t111.5 17v158h209v-162q147 -11 244 -26v-160q-333 22 -342 22q-46 0 -77 -6.5t-55 -15t-38 -36t-23 -50.5t-12.5 -78.5t-4.5 -100t-1 -133.5q0 -71 5.5 -120.5t20 -84.5t33 -56t51 -33t68 -15.5 t90.5 -3.5q50 0 163 9t132 10v-144q-96 -22 -254 -37v-159h-209v157q-72 4 -122 19t-92 47t-66.5 86t-37.5 136t-13 196z" />
<glyph unicode="&#xa3;" horiz-adv-x="1017" d="M74 0v156q88 4 114.5 45t26.5 166v290h-121v138h121v135q0 229 70.5 329t253.5 107q135 7 354 -41v-141q-222 33 -311 33q-45 0 -73.5 -22t-41 -64t-16 -82t-2.5 -97v-157h378v-138h-378v-323v-23v-25t-1 -22.5t-2.5 -26t-4.5 -23t-8 -26.5t-11 -24h481v-164h-829z" />
<glyph unicode="&#xa4;" horiz-adv-x="1136" d="M102 1051l138 137l157 -152q81 23 152 23q77 0 164 -23l161 162l142 -145l-137 -140q36 -73 36 -227q0 -159 -36 -235l133 -138l-142 -131l-155 150q-81 -23 -146 -23q-76 0 -163 23l-168 -156l-134 143l127 130q-36 79 -36 225q0 154 34 244zM416 686 q0 -128 25.5 -170.5t113.5 -42.5q87 0 113 43t26 170t-26 170t-113 43q-88 0 -113.5 -42.5t-25.5 -170.5z" />
<glyph unicode="&#xa5;" horiz-adv-x="1181" d="M47 1366h238l303 -602l309 602h238l-416 -807h256v-156h-760v156h248zM219 170v154h760v-154h-272v-170h-228v170h-260z" />
<glyph unicode="&#xa6;" horiz-adv-x="460" d="M125 -408v865h201v-865h-201zM125 723v862h201v-862h-201z" />
<glyph unicode="&#xa7;" horiz-adv-x="1034" d="M70 543q0 110 56.5 177t156.5 91q-136 92 -136 240q0 141 92.5 211.5t243.5 70.5q94 0 189 -5t144 -10l48 -5v-166q-188 18 -370 18q-58 0 -85.5 -23t-27.5 -73q0 -30 23.5 -56.5t61.5 -45.5t87 -41.5t100.5 -43t100.5 -51t87 -65.5t61.5 -86.5t23.5 -112.5 q0 -109 -57 -176.5t-156 -91.5q135 -95 135 -240q0 -141 -93.5 -211.5t-244.5 -70.5q-93 0 -187.5 5t-142.5 10l-49 5v166q166 -20 346 -20q68 0 100.5 22.5t32.5 75.5q0 38 -30 68.5t-77.5 53.5t-105 46t-115 52t-105 64.5t-77.5 91.5t-30 126zM303 561q0 -57 92 -106 q49 -4 160 -4q68 0 100.5 22.5t32.5 75.5q0 58 -74 102q-92 6 -198 6q-58 0 -85.5 -23t-27.5 -73z" />
<glyph unicode="&#xa8;" horiz-adv-x="841" d="M123 1243q0 71 19.5 91t95.5 20q75 0 95.5 -20t20.5 -91q0 -66 -20.5 -87t-95.5 -21q-76 0 -95.5 20t-19.5 88zM489 1243q0 71 19 91t94 20q76 0 97.5 -20t21.5 -91q0 -35 -3 -53t-15.5 -32t-36 -18.5t-64.5 -4.5q-74 0 -93.5 20t-19.5 88z" />
<glyph unicode="&#xa9;" horiz-adv-x="1595" d="M70 672q0 193 87 351.5t250 252.5t371 94q209 0 373 -94t252 -252.5t88 -351.5q0 -141 -52 -267.5t-143.5 -220t-226 -148t-291.5 -54.5q-208 0 -371 93.5t-250 250.5t-87 346zM233 672q0 -152 67.5 -278t193.5 -200.5t286 -74.5q162 0 289 74.5t194.5 200.5t67.5 278 q0 155 -67.5 282t-194.5 202t-289 75q-160 0 -286 -75t-193.5 -202t-67.5 -282zM496 633q0 84 3 137t13.5 101.5t28.5 74.5t50.5 46t76.5 27t108 7q30 0 112 -6t136 -16v-107q-216 16 -229 16q-27 0 -46 -2t-34.5 -10.5t-25.5 -16t-17 -27.5t-10.5 -36t-5.5 -51t-2.5 -62 t-0.5 -79q0 -72 8.5 -113t32.5 -62t53.5 -26.5t86.5 -5.5q9 0 198 12v-96q-130 -29 -256 -29q-64 0 -104 6t-77 25t-56.5 54.5t-31 94t-11.5 144.5z" />
<glyph unicode="&#xaa;" horiz-adv-x="718" d="M78 969q0 53 17 88t51 52.5t72.5 23.5t94.5 6h109v92q0 31 -16.5 42t-53.5 11q-40 0 -120.5 -9.5t-90.5 -10.5q-2 15 -10 56t-10 56q150 27 244 27q113 0 163 -37.5t50 -140.5v-451h-138q-2 8 -12 43q-92 -53 -168 -53q-96 0 -139 56.5t-43 148.5zM231 965q0 -76 50 -76 q21 0 74.5 19.5t66.5 19.5v104h-53q-77 0 -107.5 -13.5t-30.5 -53.5z" />
<glyph unicode="&#xab;" horiz-adv-x="1021" d="M68 510l284 432l170 -108l-213 -324l213 -322l-170 -108zM487 510l285 430l172 -106l-213 -324l213 -320l-172 -108z" />
<glyph unicode="&#xac;" horiz-adv-x="1171" d="M129 410v172h887v-492h-207v320h-680z" />
<glyph unicode="&#xad;" horiz-adv-x="833" d="M104 569v88h576v-88h-576z" />
<glyph unicode="&#xae;" horiz-adv-x="991" d="M90 1020q0 164 107.5 274.5t283.5 110.5q175 0 283 -110.5t108 -274.5q0 -162 -108 -272.5t-283 -110.5q-176 0 -283.5 110t-107.5 273zM176 1020q0 -130 85.5 -218.5t219.5 -88.5q133 0 219 89t86 218t-86 218t-219 89q-134 0 -219.5 -88.5t-85.5 -218.5zM352 836v368 h152q127 0 127 -94v-43q0 -45 -37 -72l31 -159h-80l-25 139h-94v-139h-74zM426 1028h74q57 0 57 39v43q0 25 -15 33t-42 8h-74v-123z" />
<glyph unicode="&#xaf;" horiz-adv-x="811" d="M117 1151v154h528v-154h-528z" />
<glyph unicode="&#xb0;" horiz-adv-x="690" d="M76 1096q0 108 71 180t189 72t187 -72t69 -180q0 -109 -69 -180.5t-187 -71.5q-120 0 -190 71.5t-70 180.5zM207 1096q0 -59 34 -99.5t95 -40.5q60 0 93.5 40.5t33.5 99.5t-32.5 98t-94.5 39q-63 0 -96 -39t-33 -98z" />
<glyph unicode="&#xb1;" horiz-adv-x="1134" d="M109 0v166h895v-166h-895zM109 600v166h335v338h224v-338h336v-166h-336v-344h-224v344h-335z" />
<glyph unicode="&#xb2;" horiz-adv-x="843" d="M115 1192v127l239 2q56 0 96.5 -2.5t84 -10.5t72 -23t53 -39t36 -60.5t11.5 -85.5q0 -47 -36 -110.5t-79 -113.5t-120.5 -136.5t-119.5 -137.5h344v-133h-579l2 119q62 73 138.5 161t112.5 129.5t73 89.5t50 77.5t13 56.5q0 50 -30.5 72t-96.5 22q-47 0 -132 -2t-132 -2z " />
<glyph unicode="&#xb3;" horiz-adv-x="765" d="M121 457v102q31 0 86.5 -2t83.5 -2q100 0 145 28.5t45 96.5v45q0 63 -33 89t-98 26h-168v106h168q65 0 98 26.5t33 88.5v55q0 31 -10 52.5t-25 33.5t-41.5 19t-51 8.5t-62.5 1.5l-170 -4v100l182 6q47 0 78 -1t70.5 -5.5t65.5 -13t53.5 -24t43 -37t25.5 -54t10 -74.5v-65 q-3 -64 -28.5 -100t-79.5 -66q53 -20 80.5 -68.5t27.5 -101.5v-51q0 -125 -80 -171t-270 -46h-27q-25 0 -74.5 1t-76.5 1z" />
<glyph unicode="&#xb4;" horiz-adv-x="677" d="M162 1186l194 350l154 -80l-205 -346z" />
<glyph unicode="&#xb5;" horiz-adv-x="1087" d="M127 -387v1407h233v-791q0 -65 78 -65q126 0 289 61v797h234v-1024h-205q-8 27 -11 57q-162 -67 -325 -67q-42 0 -62 2v-377h-231z" />
<glyph unicode="&#xb6;" horiz-adv-x="1212" d="M55 975q0 73 2 121.5t9.5 97t19 78t33 57t49.5 42t70 25.5t93.5 15t121.5 4h587v-1810h-170v1632h-77v-1632h-197v1032l-100 -2q-78 0 -116.5 1t-93 5t-79 13t-57 25.5t-45.5 40.5t-27.5 60.5t-18.5 83.5t-4 111z" />
<glyph unicode="&#xb7;" horiz-adv-x="526" d="M113 643q0 81 23.5 103t117.5 22q92 0 115.5 -21t23.5 -104q0 -82 -23.5 -106.5t-115.5 -24.5q-93 0 -117 24.5t-24 106.5z" />
<glyph unicode="&#xb8;" horiz-adv-x="681" d="M252 -430q6 46 12 96q14 -1 39 -2.5t45 -2.5t37 -1q38 0 46.5 9t8.5 46q0 14 -1 20.5t-8.5 13.5t-22.5 7l-129 2l36 240h152q-10 -66 -21 -119q80 0 112 -30t32 -119q0 -101 -41.5 -138.5t-130.5 -37.5q-51 0 -166 16z" />
<glyph unicode="&#xb9;" horiz-adv-x="544" d="M49 1188v139l340 2v-858h-180v721z" />
<glyph unicode="&#xba;" horiz-adv-x="800" d="M131 1081q0 74 4.5 124.5t17.5 88t31 59t51 34t70.5 16.5t95.5 4q93 0 143 -27t73.5 -97t23.5 -202q0 -95 -9.5 -152t-37 -97.5t-76 -56t-127.5 -15.5q-51 0 -85 4t-65.5 15.5t-50 33t-33 57.5t-20.5 87.5t-6 123.5zM305 1044q0 -101 12 -128t72 -27q20 2 24.5 2 t18.5 3.5t16 7.5t9.5 14t8 22.5t4 34t3.5 47v63.5q0 125 -15.5 161t-70.5 36q-58 0 -70 -33t-12 -164v-39z" />
<glyph unicode="&#xbb;" horiz-adv-x="1024" d="M82 195l211 319l-211 324l170 106l285 -430l-285 -428zM504 193l211 321l-211 324l168 108l286 -432l-286 -430z" />
<glyph unicode="&#xbc;" horiz-adv-x="1048" d="M59 473v150h908v-150h-908zM160 -147l325 497h220v-471h118v-135h-118v-256h-152v256h-393v109zM297 1462v137l340 3v-859h-180v721zM360 -121h191v301z" />
<glyph unicode="&#xbd;" horiz-adv-x="1040" d="M51 475v148l907 2v-150h-907zM238 211v127l239 2q68 0 114.5 -4t95 -17t77.5 -36.5t47 -64.5t18 -99q0 -47 -36 -110.5t-78.5 -113.5t-120.5 -137t-119 -137h344v-133h-579l2 119q62 73 138.5 161t112.5 129.5t73 89.5t50 77.5t13 56.5q0 50 -30.5 72t-96.5 22 q-47 0 -132 -2t-132 -2zM297 1462v137l340 3v-859h-180v721z" />
<glyph unicode="&#xbe;" horiz-adv-x="1048" d="M55 477v148h908v-148h-908zM156 -145l325 497h219v-471h119v-135h-119v-256h-151v256h-393v109zM281 741v103q31 0 80 -2t77 -2q100 0 145.5 28.5t45.5 96.5v45q0 63 -33 88.5t-98 25.5h-168v107h168q65 0 98 26.5t33 88.5v55q0 31 -10 52.5t-25.5 33.5t-42 19t-51 8.5 t-62.5 1.5l-157 -5v101l170 6q47 0 78 -1t70.5 -5.5t65.5 -13t53.5 -24t43 -37t25.5 -54t10 -74.5v-66q-3 -64 -28.5 -99.5t-80.5 -65.5q53 -20 81 -69t28 -101v-52q0 -125 -80.5 -171t-270.5 -46h-26q-25 0 -68.5 1t-70.5 1zM356 -119h191v301z" />
<glyph unicode="&#xbf;" horiz-adv-x="913" d="M55 -18q0 191 100 270.5t347 79.5v258h221v-426h-240q-91 0 -139.5 -42.5t-48.5 -139.5v-31q0 -28 2.5 -51t9.5 -41t13 -32t20 -24t23.5 -17.5t30 -11.5t33 -6.5t39.5 -4t42 -1.5h47h10h262v-161h-249q-70 0 -116 1.5t-106.5 8.5t-99.5 20.5t-80.5 38t-65.5 59 t-39.5 86.5t-15.5 119v48zM498 924q0 67 20 87.5t96 20.5q75 0 95 -20.5t20 -87.5q0 -69 -19.5 -89t-95.5 -20q-75 0 -95.5 19.5t-20.5 89.5z" />
<glyph unicode="&#xc0;" d="M4 0l434 1366h334l440 -1366h-235l-111 346h-512l-106 -346h-244zM360 1839l154 80l195 -350l-144 -76zM408 514h403l-205 645z" />
<glyph unicode="&#xc1;" d="M4 0l434 1366h334l440 -1366h-235l-111 346h-512l-106 -346h-244zM408 514h403l-205 645zM500 1565l194 350l154 -80l-205 -346z" />
<glyph unicode="&#xc2;" d="M4 0l434 1366h334l440 -1366h-235l-111 346h-512l-106 -346h-244zM293 1610l330 256l321 -260l-100 -119l-226 178l-237 -176zM408 514h403l-205 645z" />
<glyph unicode="&#xc3;" d="M4 0l434 1366h334l440 -1366h-235l-111 346h-512l-106 -346h-244zM303 1565q34 64 86 105.5t109 41.5q44 0 124.5 -37t98.5 -37q37 0 90 70q44 -31 107 -74q-32 -63 -80 -102t-109 -39q-39 0 -113 37t-114 37q-16 0 -35.5 -13.5t-29.5 -24.5t-34 -40q-4 3 -41.5 32 t-58.5 44zM408 514h403l-205 645z" />
<glyph unicode="&#xc4;" d="M4 0l434 1366h334l440 -1366h-235l-111 346h-512l-106 -346h-244zM295 1595q0 71 19.5 91t95.5 20q75 0 95.5 -20t20.5 -91q0 -66 -20.5 -87t-95.5 -21q-76 0 -95.5 20t-19.5 88zM408 514h403l-205 645zM662 1595q0 71 18.5 91t93.5 20q76 0 97.5 -20t21.5 -91 q0 -35 -3 -53t-15.5 -32t-36 -18.5t-64.5 -4.5q-74 0 -93 20t-19 88z" />
<glyph unicode="&#xc5;" d="M4 0l434 1366h334l440 -1366h-235l-111 346h-512l-106 -346h-244zM408 514h403l-205 645zM432 1669q0 74 49 124t127 50q81 0 130.5 -50t49.5 -124q0 -73 -49.5 -122.5t-130.5 -49.5q-80 0 -128 48.5t-48 123.5zM537 1669q0 -34 20 -56t51 -22q33 0 53.5 22t20.5 56 t-20.5 57t-53.5 23q-31 0 -51 -23t-20 -57z" />
<glyph unicode="&#xc6;" horiz-adv-x="1703" d="M2 0l434 1366h1155v-176h-766l131 -406h582v-186h-520l135 -422h444v-176h-622l-111 346h-512l-106 -346h-244zM406 514h403l-205 645z" />
<glyph unicode="&#xc7;" horiz-adv-x="1153" d="M100 614q0 144 4 234.5t15.5 182t35 143t60.5 99t95.5 69.5t135 34.5t183.5 12.5q39 0 170 -10t241 -25v-166q-310 26 -376 26q-48 0 -85 -3t-68.5 -13t-54.5 -21t-42 -34.5t-31 -45.5t-21 -62.5t-14 -77.5t-8 -98t-3.5 -116t-0.5 -139q0 -78 5 -138t17.5 -106.5 t28 -79.5t43 -56.5t55.5 -37.5t71.5 -21.5t85.5 -10t103 -2.5q129 0 295 16v-150q-200 -30 -372 -36q-1 -8 -4.5 -25t-4.5 -25q80 0 112 -30t32 -119q0 -101 -41.5 -138.5t-130.5 -37.5q-51 0 -166 16q6 47 12 96q14 -1 39 -2.5t45 -2.5t37 -1q38 0 46.5 9.5t8.5 46.5 q0 14 -1 20.5t-8.5 13.5t-22.5 7l-129 2l26 172q-94 5 -158 23t-116.5 59t-82.5 111.5t-45.5 177t-15.5 259.5z" />
<glyph unicode="&#xc8;" horiz-adv-x="1128" d="M145 0v1368h863v-180h-625v-402h571v-182h-571v-426h625v-178h-863zM367 1833l153 80l195 -350l-144 -76z" />
<glyph unicode="&#xc9;" horiz-adv-x="1128" d="M145 0v1368h863v-180h-625v-402h571v-182h-571v-426h625v-178h-863zM444 1573l195 350l154 -80l-205 -346z" />
<glyph unicode="&#xca;" horiz-adv-x="1128" d="M145 0v1368h863v-180h-625v-402h571v-182h-571v-426h625v-178h-863zM262 1614l330 256l321 -260l-100 -119l-225 178l-238 -176z" />
<glyph unicode="&#xcb;" horiz-adv-x="1128" d="M145 0v1368h863v-180h-625v-402h571v-182h-571v-426h625v-178h-863zM276 1602q0 71 19.5 90.5t95.5 19.5q75 0 96 -19.5t21 -90.5q0 -66 -21 -87.5t-96 -21.5q-76 0 -95.5 20.5t-19.5 88.5zM643 1602q0 71 19 90.5t94 19.5q76 0 97 -19.5t21 -90.5q0 -67 -20 -88t-98 -21 q-74 0 -93.5 20.5t-19.5 88.5z" />
<glyph unicode="&#xcc;" horiz-adv-x="552" d="M16 1841l154 80l195 -350l-144 -76zM145 0v1366h238v-1366h-238z" />
<glyph unicode="&#xcd;" horiz-adv-x="546" d="M145 0v1366h238v-1366h-238zM156 1569l194 350l154 -80l-205 -346z" />
<glyph unicode="&#xce;" horiz-adv-x="552" d="M-61 1610l329 256l322 -260l-101 -119l-225 178l-237 -176zM145 0v1366h238v-1366h-238z" />
<glyph unicode="&#xcf;" horiz-adv-x="552" d="M-33 1595q0 71 19.5 91t95.5 20q75 0 96 -20t21 -91q0 -66 -21 -87t-96 -21q-76 0 -95.5 20t-19.5 88zM145 0v1366h238v-1366h-238zM334 1595q0 71 18.5 91t93.5 20q76 0 97.5 -20t21.5 -91q0 -35 -3 -53t-15.5 -32t-36 -18.5t-64.5 -4.5q-74 0 -93 20t-19 88z" />
<glyph unicode="&#xd0;" horiz-adv-x="1290" d="M35 653v183h90v530l510 4q95 0 163.5 -11t128.5 -40t98.5 -78t66 -126.5t39.5 -184.5t12 -252q0 -141 -10 -243t-34.5 -179t-60 -125.5t-92 -78t-125 -41t-164.5 -11.5h-532v653h-90zM362 170l285 -2q50 2 84.5 9.5t65.5 28.5t50 56t33 91.5t19.5 135.5t5.5 189 q0 120 -5 202.5t-18.5 143t-31 95t-49.5 54.5t-67.5 26t-90.5 5h-281v-368h207v-183h-207v-483z" />
<glyph unicode="&#xd1;" horiz-adv-x="1368" d="M145 0v1368h279l541 -1020l2 1020h233v-1368h-295l-530 997v-997h-230zM381 1556q35 65 86 106.5t108 41.5q44 0 125 -37t99 -37q37 0 90 70q62 -44 106 -74q-71 -141 -188 -141q-39 0 -113 37t-114 37q-16 0 -35.5 -13.5t-29.5 -24.5t-34 -40q-82 62 -100 75z" />
<glyph unicode="&#xd2;" horiz-adv-x="1288" d="M121 682q0 152 6.5 251t27.5 184t54.5 132t93 80.5t137.5 45t193 11.5q70 0 126 -4t104 -15t84 -26t66 -40.5t50.5 -54.5t36 -72.5t25 -90t15 -112t7.5 -132.5t2 -157q0 -114 -3 -194.5t-13.5 -155.5t-26.5 -123.5t-44 -91t-64.5 -66.5t-91 -41.5t-120 -23.5t-153.5 -6 q-87 0 -152.5 7t-119 25.5t-90.5 43t-64.5 68t-43.5 92t-26 123t-13 153t-3 190.5zM356 682q0 -74 0.5 -123t3 -102.5t6.5 -86t12 -68.5t18 -55.5t26 -40.5t35.5 -30.5t46 -18.5t58 -11.5t71.5 -2.5q51 0 87 3.5t66.5 16.5t50 29t35 49t23 68t12.5 95.5t6.5 121.5t1.5 156 t-1 155.5t-6 121.5t-13 96t-23 69t-34.5 50t-50 29.5t-67 17.5t-87.5 4t-87.5 -4t-67 -18.5t-49.5 -30t-33.5 -51.5t-21.5 -69t-11.5 -96.5t-5.5 -120.5t-1 -153zM416 1839l153 80l195 -350l-143 -76z" />
<glyph unicode="&#xd3;" horiz-adv-x="1288" d="M121 682q0 152 6.5 251t27.5 184t54.5 132t93 80.5t137.5 45t193 11.5q70 0 126 -4t104 -15t84 -26t66 -40.5t50.5 -54.5t36 -72.5t25 -90t15 -112t7.5 -132.5t2 -157q0 -114 -3 -194.5t-13.5 -155.5t-26.5 -123.5t-44 -91t-64.5 -66.5t-91 -41.5t-120 -23.5t-153.5 -6 q-87 0 -152.5 7t-119 25.5t-90.5 43t-64.5 68t-43.5 92t-26 123t-13 153t-3 190.5zM356 682q0 -74 0.5 -123t3 -102.5t6.5 -86t12 -68.5t18 -55.5t26 -40.5t35.5 -30.5t46 -18.5t58 -11.5t71.5 -2.5q51 0 87 3.5t66.5 16.5t50 29t35 49t23 68t12.5 95.5t6.5 121.5t1.5 156 t-1 155.5t-6 121.5t-13 96t-23 69t-34.5 50t-50 29.5t-67 17.5t-87.5 4t-87.5 -4t-67 -18.5t-49.5 -30t-33.5 -51.5t-21.5 -69t-11.5 -96.5t-5.5 -120.5t-1 -153zM500 1561l194 350l154 -80l-205 -346z" />
<glyph unicode="&#xd4;" horiz-adv-x="1288" d="M121 682q0 152 6.5 251t27.5 184t54.5 132t93 80.5t137.5 45t193 11.5q70 0 126 -4t104 -15t84 -26t66 -40.5t50.5 -54.5t36 -72.5t25 -90t15 -112t7.5 -132.5t2 -157q0 -114 -3 -194.5t-13.5 -155.5t-26.5 -123.5t-44 -91t-64.5 -66.5t-91 -41.5t-120 -23.5t-153.5 -6 q-87 0 -152.5 7t-119 25.5t-90.5 43t-64.5 68t-43.5 92t-26 123t-13 153t-3 190.5zM319 1624l330 256l322 -260l-101 -119l-225 178l-237 -176zM356 682q0 -74 0.5 -123t3 -102.5t6.5 -86t12 -68.5t18 -55.5t26 -40.5t35.5 -30.5t46 -18.5t58 -11.5t71.5 -2.5q51 0 87 3.5 t66.5 16.5t50 29t35 49t23 68t12.5 95.5t6.5 121.5t1.5 156t-1 155.5t-6 121.5t-13 96t-23 69t-34.5 50t-50 29.5t-67 17.5t-87.5 4t-87.5 -4t-67 -18.5t-49.5 -30t-33.5 -51.5t-21.5 -69t-11.5 -96.5t-5.5 -120.5t-1 -153z" />
<glyph unicode="&#xd5;" horiz-adv-x="1288" d="M121 682q0 152 6.5 251t27.5 184t54.5 132t93 80.5t137.5 45t193 11.5q70 0 126 -4t104 -15t84 -26t66 -40.5t50.5 -54.5t36 -72.5t25 -90t15 -112t7.5 -132.5t2 -157q0 -114 -3 -194.5t-13.5 -155.5t-26.5 -123.5t-44 -91t-64.5 -66.5t-91 -41.5t-120 -23.5t-153.5 -6 q-87 0 -152.5 7t-119 25.5t-90.5 43t-64.5 68t-43.5 92t-26 123t-13 153t-3 190.5zM319 1556q35 64 86.5 106t108.5 42q44 0 124.5 -37t98.5 -37q37 0 90 70q44 -32 107 -74q-32 -63 -80 -102t-109 -39q-39 0 -113 37t-114 37q-22 0 -42.5 -18t-48.5 -51q-2 -3 -3.5 -5 t-3.5 -4q-66 50 -101 75zM356 682q0 -74 0.5 -123t3 -102.5t6.5 -86t12 -68.5t18 -55.5t26 -40.5t35.5 -30.5t46 -18.5t58 -11.5t71.5 -2.5q51 0 87 3.5t66.5 16.5t50 29t35 49t23 68t12.5 95.5t6.5 121.5t1.5 156t-1 155.5t-6 121.5t-13 96t-23 69t-34.5 50t-50 29.5 t-67 17.5t-87.5 4t-87.5 -4t-67 -18.5t-49.5 -30t-33.5 -51.5t-21.5 -69t-11.5 -96.5t-5.5 -120.5t-1 -153z" />
<glyph unicode="&#xd6;" horiz-adv-x="1288" d="M121 682q0 152 6.5 251t27.5 184t54.5 132t93 80.5t137.5 45t193 11.5q70 0 126 -4t104 -15t84 -26t66 -40.5t50.5 -54.5t36 -72.5t25 -90t15 -112t7.5 -132.5t2 -157q0 -114 -3 -194.5t-13.5 -155.5t-26.5 -123.5t-44 -91t-64.5 -66.5t-91 -41.5t-120 -23.5t-153.5 -6 q-87 0 -152.5 7t-119 25.5t-90.5 43t-64.5 68t-43.5 92t-26 123t-13 153t-3 190.5zM334 1595q0 71 19.5 91t95.5 20q75 0 95.5 -20t20.5 -91q0 -66 -20.5 -87t-95.5 -21q-76 0 -95.5 20t-19.5 88zM356 682q0 -74 0.5 -123t3 -102.5t6.5 -86t12 -68.5t18 -55.5t26 -40.5 t35.5 -30.5t46 -18.5t58 -11.5t71.5 -2.5q51 0 87 3.5t66.5 16.5t50 29t35 49t23 68t12.5 95.5t6.5 121.5t1.5 156t-1 155.5t-6 121.5t-13 96t-23 69t-34.5 50t-50 29.5t-67 17.5t-87.5 4t-87.5 -4t-67 -18.5t-49.5 -30t-33.5 -51.5t-21.5 -69t-11.5 -96.5t-5.5 -120.5 t-1 -153zM700 1595q0 71 19 91t94 20q76 0 97.5 -20t21.5 -91q0 -35 -3 -53t-15.5 -32t-36 -18.5t-64.5 -4.5q-74 0 -93.5 20t-19.5 88z" />
<glyph unicode="&#xd7;" horiz-adv-x="1091" d="M98 199l301 301l-299 303l136 135l303 -299l299 299l139 -135l-303 -303l301 -301l-137 -136l-301 299l-301 -301z" />
<glyph unicode="&#xd8;" horiz-adv-x="1288" d="M121 682q0 152 6.5 251t27.5 184t54.5 132t93 80.5t137.5 45t193 11.5q49 0 123 -4l32 103h158l-41 -129q63 -20 106.5 -56t70.5 -86.5t42 -131.5t20 -172t5 -228q0 -114 -3 -194.5t-13.5 -155.5t-26.5 -123.5t-44 -91t-64.5 -66.5t-91 -41.5t-120 -23.5t-153.5 -6 q-94 0 -154 8l-28 -94h-154l39 126q-56 22 -94 60t-62 89t-37 130.5t-17.5 166.5t-4.5 216zM356 682q0 -197 8 -294.5t37 -151.5l306 985q-46 4 -74 4q-51 0 -87.5 -4t-67 -18.5t-49.5 -30t-33.5 -51.5t-21.5 -69t-11.5 -96.5t-5.5 -120.5t-1 -153zM530 150q51 -7 103 -7 q51 0 87 3.5t66.5 16.5t50 29t35 49t23 68t12.5 95.5t6.5 121.5t1.5 156q0 223 -13 328t-56 153z" />
<glyph unicode="&#xd9;" horiz-adv-x="1341" d="M141 682v686h240v-686q0 -94 1 -151t5.5 -119t12 -95.5t22.5 -69t34.5 -51.5t49.5 -30t67.5 -18.5t88.5 -4.5q52 0 88.5 3.5t67.5 16.5t50.5 29t35 49t23.5 68t13 96t6.5 121.5t1.5 155.5v686h238v-686q0 -115 -3.5 -195t-13.5 -155t-26 -123.5t-44.5 -91t-66 -66.5 t-92.5 -41.5t-121.5 -23.5t-156.5 -6q-89 0 -155.5 7t-121 25.5t-92 43t-65.5 68t-44.5 92t-26 123t-13 153t-3.5 190.5zM438 1837l154 80l194 -350l-143 -76z" />
<glyph unicode="&#xda;" horiz-adv-x="1341" d="M141 682v686h240v-686q0 -94 1 -151t5.5 -119t12 -95.5t22.5 -69t34.5 -51.5t49.5 -30t67.5 -18.5t88.5 -4.5q52 0 88.5 3.5t67.5 16.5t50.5 29t35 49t23.5 68t13 96t6.5 121.5t1.5 155.5v686h238v-686q0 -115 -3.5 -195t-13.5 -155t-26 -123.5t-44.5 -91t-66 -66.5 t-92.5 -41.5t-121.5 -23.5t-156.5 -6q-89 0 -155.5 7t-121 25.5t-92 43t-65.5 68t-44.5 92t-26 123t-13 153t-3.5 190.5zM559 1561l195 350l153 -80l-205 -346z" />
<glyph unicode="&#xdb;" horiz-adv-x="1341" d="M141 682v686h240v-686q0 -94 1 -151t5.5 -119t12 -95.5t22.5 -69t34.5 -51.5t49.5 -30t67.5 -18.5t88.5 -4.5q52 0 88.5 3.5t67.5 16.5t50.5 29t35 49t23.5 68t13 96t6.5 121.5t1.5 155.5v686h238v-686q0 -115 -3.5 -195t-13.5 -155t-26 -123.5t-44.5 -91t-66 -66.5 t-92.5 -41.5t-121.5 -23.5t-156.5 -6q-89 0 -155.5 7t-121 25.5t-92 43t-65.5 68t-44.5 92t-26 123t-13 153t-3.5 190.5zM346 1604l330 256l321 -261l-100 -118l-225 178l-238 -176z" />
<glyph unicode="&#xdc;" horiz-adv-x="1341" d="M141 682v686h240v-686q0 -94 1 -151t5.5 -119t12 -95.5t22.5 -69t34.5 -51.5t49.5 -30t67.5 -18.5t88.5 -4.5q52 0 88.5 3.5t67.5 16.5t50.5 29t35 49t23.5 68t13 96t6.5 121.5t1.5 155.5v686h238v-686q0 -115 -3.5 -195t-13.5 -155t-26 -123.5t-44.5 -91t-66 -66.5 t-92.5 -41.5t-121.5 -23.5t-156.5 -6q-89 0 -155.5 7t-121 25.5t-92 43t-65.5 68t-44.5 92t-26 123t-13 153t-3.5 190.5zM369 1595q0 71 19 91t95 20q75 0 96 -20t21 -91q0 -66 -21 -87t-96 -21q-76 0 -95 20t-19 88zM735 1595q0 71 19 91t94 20q76 0 97.5 -20t21.5 -91 q0 -35 -3 -53t-15.5 -32t-36 -18.5t-64.5 -4.5q-74 0 -93.5 20t-19.5 88z" />
<glyph unicode="&#xdd;" horiz-adv-x="1144" d="M-12 1368h268l293 -670l299 670h268l-446 -922v-446h-242v446zM430 1565l195 350l153 -80l-205 -346z" />
<glyph unicode="&#xde;" horiz-adv-x="1251" d="M143 0l2 1366h238v-229h307q80 0 145.5 -9.5t125.5 -33t100 -61.5t64 -98.5t24 -139.5v-168q0 -122 -89.5 -216t-225.5 -116q-55 -8 -453 -8v-287h-238zM381 473h303q43 0 71.5 2t62 11t53.5 25t33.5 45.5t13.5 70.5v166q0 41 -13.5 71.5t-34.5 48t-53.5 27.5t-63 13 t-69.5 3h-303v-483z" />
<glyph unicode="&#xdf;" horiz-adv-x="1167" d="M20 -231q36 4 58 13t31 25t11.5 29.5t2.5 38.5v1141q0 166 100.5 263t272.5 97q64 0 117.5 -4.5t115.5 -17t109 -37.5t87 -62.5t61.5 -97t21.5 -135.5q0 -159 -131 -313q41 -18 69.5 -43.5t44.5 -52.5t24.5 -67t10.5 -73t2 -84v-113q0 -45 -8 -81.5t-20 -64t-36 -49 t-47 -36t-61 -24.5t-71 -16t-85 -8.5t-93 -3.5t-105 -1h-84q-14 0 -35 1t-37 1v-88q0 -67 -12 -117t-32 -80.5t-51.5 -49t-66 -25.5t-78.5 -7q-31 0 -86 8v134zM346 172h158h16h62t53.5 1.5t50 4.5t39.5 8.5t34 14.5t23 21.5t16.5 30.5t4.5 40v108q0 100 -39.5 133 t-140.5 33h-277v-395zM348 748h279q157 138 157 266q0 43 -17.5 74.5t-43.5 49t-67 27.5t-76.5 12.5t-83.5 2.5q-62 0 -105 -39t-43 -131v-262z" />
<glyph unicode="&#xe0;" horiz-adv-x="1034" d="M72 317q0 69 19.5 119.5t52.5 81t84 48.5t105.5 24.5t125.5 5.5l205 -2v170q0 72 -33 92.5t-111 20.5q-123 0 -354 -33q-2 6 -18.5 80.5t-16.5 79.5q215 40 418 40q95 0 155 -11t105.5 -42t65.5 -87.5t20 -145.5v-758h-199l-16 76q-184 -94 -311 -94q-81 0 -140 25.5 t-92.5 72.5t-49 105.5t-15.5 131.5zM293 1470l153 80l195 -350l-143 -76zM297 309q0 -145 94 -145q79 0 273 67v218q-77 0 -125.5 -1.5t-94 -6.5t-70 -14t-44 -25t-26.5 -38.5t-7 -54.5z" />
<glyph unicode="&#xe1;" horiz-adv-x="1036" d="M72 317q0 69 19.5 119.5t52.5 81t84 48.5t105.5 24.5t125.5 5.5l205 -2v170q0 72 -33 92.5t-111 20.5q-123 0 -354 -33q-2 6 -18.5 80.5t-16.5 79.5q215 40 418 40q95 0 155 -11t105.5 -42t65.5 -87.5t20 -145.5v-758h-199l-16 76q-184 -94 -311 -94q-81 0 -140 25.5 t-92.5 72.5t-49 105.5t-15.5 131.5zM297 309q0 -145 94 -145q79 0 273 67v218q-77 0 -125.5 -1.5t-94 -6.5t-70 -14t-44 -25t-26.5 -38.5t-7 -54.5zM371 1214l194 351l154 -80l-205 -346z" />
<glyph unicode="&#xe2;" horiz-adv-x="1038" d="M72 317q0 69 19.5 119.5t52.5 81t84 48.5t105.5 24.5t125.5 5.5l205 -2v170q0 72 -33 92.5t-111 20.5q-123 0 -354 -33q-2 6 -18.5 80.5t-16.5 79.5q215 40 418 40q95 0 155 -11t105.5 -42t65.5 -87.5t20 -145.5v-758h-199l-16 76q-184 -94 -311 -94q-81 0 -140 25.5 t-92.5 72.5t-49 105.5t-15.5 131.5zM162 1249l330 256l321 -260l-100 -119l-226 179l-237 -177zM297 309q0 -145 94 -145q79 0 273 67v218q-77 0 -125.5 -1.5t-94 -6.5t-70 -14t-44 -25t-26.5 -38.5t-7 -54.5z" />
<glyph unicode="&#xe3;" horiz-adv-x="1036" d="M72 317q0 69 19.5 119.5t52.5 81t84 48.5t105.5 24.5t125.5 5.5l205 -2v170q0 72 -33 92.5t-111 20.5q-123 0 -354 -33q-2 6 -18.5 80.5t-16.5 79.5q215 40 418 40q95 0 155 -11t105.5 -42t65.5 -87.5t20 -145.5v-758h-199l-16 76q-184 -94 -311 -94q-81 0 -140 25.5 t-92.5 72.5t-49 105.5t-15.5 131.5zM182 1194q34 64 86 105.5t109 41.5q44 0 124.5 -36.5t98.5 -36.5q38 0 90 69q18 -13 107 -73q-32 -64 -80 -103t-109 -39q-39 0 -113 37t-114 37q-22 0 -42.5 -18t-48.5 -51q-2 -3 -3.5 -5t-3.5 -4q-89 68 -101 76zM297 309 q0 -145 94 -145q79 0 273 67v218q-77 0 -125.5 -1.5t-94 -6.5t-70 -14t-44 -25t-26.5 -38.5t-7 -54.5z" />
<glyph unicode="&#xe4;" horiz-adv-x="1034" d="M72 317q0 69 19.5 119.5t52.5 81t84 48.5t105.5 24.5t125.5 5.5l205 -2v170q0 72 -33 92.5t-111 20.5q-123 0 -354 -33q-2 6 -18.5 80.5t-16.5 79.5q215 40 418 40q95 0 155 -11t105.5 -42t65.5 -87.5t20 -145.5v-758h-199l-16 76q-184 -94 -311 -94q-81 0 -140 25.5 t-92.5 72.5t-49 105.5t-15.5 131.5zM197 1237q0 71 19 91t95 20q75 0 96 -20t21 -91q0 -66 -21 -87.5t-96 -21.5t-94.5 20t-19.5 89zM297 309q0 -145 94 -145q79 0 273 67v218q-77 0 -125.5 -1.5t-94 -6.5t-70 -14t-44 -25t-26.5 -38.5t-7 -54.5zM563 1237q0 71 19 91t94 20 q76 0 97.5 -20t21.5 -91q0 -67 -20.5 -88t-98.5 -21q-74 0 -93.5 20.5t-19.5 88.5z" />
<glyph unicode="&#xe5;" horiz-adv-x="1036" d="M72 317q0 69 19.5 119.5t52.5 81t84 48.5t105.5 24.5t125.5 5.5l205 -2v170q0 72 -33 92.5t-111 20.5q-123 0 -354 -33q-2 6 -18.5 80.5t-16.5 79.5q215 40 418 40q95 0 155 -11t105.5 -42t65.5 -87.5t20 -145.5v-758h-199l-16 76q-184 -94 -311 -94q-81 0 -140 25.5 t-92.5 72.5t-49 105.5t-15.5 131.5zM297 309q0 -145 94 -145q79 0 273 67v218q-77 0 -125.5 -1.5t-94 -6.5t-70 -14t-44 -25t-26.5 -38.5t-7 -54.5zM332 1305q0 74 49 124t127 50q81 0 130.5 -50t49.5 -124q0 -73 -49.5 -122.5t-130.5 -49.5q-80 0 -128 48.5t-48 123.5z M436 1305q0 -34 20.5 -56t51.5 -22q33 0 53.5 22t20.5 56t-20.5 56.5t-53.5 22.5q-31 0 -51.5 -22.5t-20.5 -56.5z" />
<glyph unicode="&#xe6;" horiz-adv-x="1638" d="M72 322q0 54 12 96t32 71.5t53 50t67.5 32.5t83.5 19t92.5 9t103.5 2h148v162q0 72 -33 92.5t-111 20.5q-110 0 -358 -33l-35 160q221 40 420 40q100 0 160 -12.5t100 -48.5q87 64 293 64q71 0 125 -6.5t98 -22.5t75 -38t54 -58.5t37 -78.5t22.5 -103.5t11.5 -127 t3 -155.5l-627 -8q2 -68 6.5 -112.5t15.5 -81.5t26.5 -57t43 -34t62 -18.5t86.5 -4.5q79 0 325 23v-144q-223 -38 -401 -38q-114 0 -186.5 23t-116.5 75q-54 -28 -95.5 -45t-121.5 -35t-166 -18q-154 0 -229.5 89t-75.5 251zM297 313q0 -78 26.5 -115.5t92.5 -37.5 q53 0 122.5 17t125.5 44v225h-113q-147 0 -200.5 -28t-53.5 -105zM901 608h404q-2 76 -7.5 121t-17 80t-35.5 51t-57.5 23.5t-87.5 7.5q-28 0 -51 -2t-41 -9t-32 -12.5t-25 -20t-18 -23.5t-12.5 -31.5t-8.5 -36t-5.5 -44t-3 -48t-2.5 -56.5z" />
<glyph unicode="&#xe7;" horiz-adv-x="999" d="M100 461q0 82 2 141t7.5 117t15.5 97.5t25.5 76.5t38.5 59.5t53 42t71 29.5t90.5 15t112.5 5q45 0 166.5 -8.5t202.5 -23.5v-158q-307 23 -342 23q-40 0 -68 -3t-51 -15.5t-37.5 -23.5t-25 -41t-15.5 -53.5t-8 -75.5t-3.5 -92t-0.5 -118q0 -71 5.5 -120t20 -83.5 t32.5 -54.5t52 -30.5t68 -13.5t90 -3q86 0 293 18v-143q-114 -28 -297 -39q-2 -9 -5 -27t-5 -27q80 0 111.5 -30t31.5 -119q0 -101 -41.5 -138.5t-130.5 -37.5q-51 0 -166 16q2 12 6.5 45t6.5 51q14 -1 38.5 -2.5t44.5 -2.5t37 -1q38 0 47 9.5t9 46.5q0 13 -1 20t-9 14 t-23 7l-129 2l26 172q-76 3 -128 16t-96 43.5t-69.5 83.5t-39 135t-13.5 199z" />
<glyph unicode="&#xe8;" horiz-adv-x="1056" d="M100 514q0 111 5.5 183.5t22 137t44.5 101t77 64t115 37.5t162 10q92 0 157 -10t113.5 -36t77.5 -63.5t47 -100.5t24.5 -137.5t6.5 -183.5v-63h-73q-92 -1 -275.5 -2t-275.5 -2q2 -109 12.5 -165.5t38.5 -90.5q18 -23 55.5 -34.5t67.5 -13.5t82 -2q106 0 309 21v-144 q-223 -38 -401 -38q-84 0 -144 11t-104.5 38.5t-71.5 66t-43.5 101t-22.5 136t-6 179.5zM322 1462l153 80l195 -350l-144 -76zM330 608h403q-3 76 -8.5 120t-17 79t-35.5 50.5t-57.5 22.5t-88.5 7t-90.5 -10.5t-56 -28.5t-30.5 -54t-13 -74t-6 -102v-10z" />
<glyph unicode="&#xe9;" horiz-adv-x="1056" d="M100 514q0 111 5.5 183.5t22 137t44.5 101t77 64t115 37.5t162 10q92 0 157 -10t113.5 -36t77.5 -63.5t47 -100.5t24.5 -137.5t6.5 -183.5v-63h-73q-92 -1 -275.5 -2t-275.5 -2q2 -109 12.5 -165.5t38.5 -90.5q18 -23 55.5 -34.5t67.5 -13.5t82 -2q106 0 309 21v-144 q-223 -38 -401 -38q-84 0 -144 11t-104.5 38.5t-71.5 66t-43.5 101t-22.5 136t-6 179.5zM330 608h403q-3 76 -8.5 120t-17 79t-35.5 50.5t-57.5 22.5t-88.5 7t-90.5 -10.5t-56 -28.5t-30.5 -54t-13 -74t-6 -102v-10zM395 1194l195 350l153 -80l-204 -346z" />
<glyph unicode="&#xea;" horiz-adv-x="1058" d="M100 514q0 111 5.5 183.5t22 137t44.5 101t77 64t115 37.5t162 10q92 0 157 -10t113.5 -36t77.5 -63.5t47 -100.5t24.5 -137.5t6.5 -183.5v-63h-73q-92 -1 -275.5 -2t-275.5 -2q2 -109 12.5 -165.5t38.5 -90.5q18 -23 55.5 -34.5t67.5 -13.5t82 -2q106 0 309 21v-144 q-223 -38 -401 -38q-84 0 -144 11t-104.5 38.5t-71.5 66t-43.5 101t-22.5 136t-6 179.5zM203 1239l329 256l322 -260l-100 -119l-226 178l-237 -176zM330 608h403q-3 76 -8.5 120t-17 79t-35.5 50.5t-57.5 22.5t-88.5 7t-90.5 -10.5t-56 -28.5t-30.5 -54t-13 -74t-6 -102 v-10z" />
<glyph unicode="&#xeb;" horiz-adv-x="1056" d="M100 514q0 111 5.5 183.5t22 137t44.5 101t77 64t115 37.5t162 10q92 0 157 -10t113.5 -36t77.5 -63.5t47 -100.5t24.5 -137.5t6.5 -183.5v-63h-73q-92 -1 -275.5 -2t-275.5 -2q2 -109 12.5 -165.5t38.5 -90.5q18 -23 55.5 -34.5t67.5 -13.5t82 -2q106 0 309 21v-144 q-223 -38 -401 -38q-84 0 -144 11t-104.5 38.5t-71.5 66t-43.5 101t-22.5 136t-6 179.5zM225 1243q0 71 19.5 91t95.5 20q75 0 96 -20t21 -91q0 -66 -21 -87t-96 -21q-76 0 -95.5 20t-19.5 88zM330 608h403q-3 76 -8.5 120t-17 79t-35.5 50.5t-57.5 22.5t-88.5 7 t-90.5 -10.5t-56 -28.5t-30.5 -54t-13 -74t-6 -102v-10zM592 1243q0 71 19 91t94 20q76 0 97 -20t21 -91q0 -67 -20 -87.5t-98 -20.5q-74 0 -93.5 20t-19.5 88z" />
<glyph unicode="&#xec;" horiz-adv-x="507" d="M4 1473l154 79l194 -350l-143 -76zM127 0v1022h235v-1022h-235z" />
<glyph unicode="&#xed;" horiz-adv-x="507" d="M127 0v1022h235v-1022h-235zM129 1204l195 350l153 -79l-205 -347z" />
<glyph unicode="&#xee;" horiz-adv-x="507" d="M-82 1245l330 256l321 -260l-100 -119l-225 178l-238 -176zM127 0v1022h235v-1022h-235z" />
<glyph unicode="&#xef;" horiz-adv-x="507" d="M-53 1243q0 71 19 91t95 20q75 0 96 -20t21 -91q0 -66 -21 -87t-96 -21q-76 0 -95 20t-19 88zM127 0v1022h235v-1022h-235zM313 1243q0 71 19 91t94 20q76 0 97.5 -20t21.5 -91q0 -35 -3 -53t-15.5 -32t-36 -18.5t-64.5 -4.5q-74 0 -93.5 20t-19.5 88z" />
<glyph unicode="&#xf0;" horiz-adv-x="1034" d="M76 383q0 69 5 122.5t17.5 95t28 71t42 50.5t54 33.5t69.5 19.5t83 9t100 2q55 0 79.5 -0.5t62.5 -6.5t65 -19q0 194 -31 250q-88 -98 -119 -136l-118 107l102 119q-23 8 -203 63l2 189q226 -48 338 -103q13 16 49.5 58t53.5 63l121 -104l-93 -107q27 -26 45 -53 t30.5 -69.5t19 -80t10 -111t4 -133.5t0.5 -175v-101q0 -99 -5.5 -164.5t-22.5 -116.5t-41 -79.5t-68 -46.5t-96.5 -23.5t-133.5 -5.5q-66 0 -111.5 2t-93 8.5t-78.5 18.5t-61 31.5t-48 47.5t-32 67.5t-20 90.5t-6 117zM287 401q0 -52 3.5 -88t14.5 -61t23.5 -39t37.5 -21.5 t49 -9.5t66 -2q41 0 62.5 0.5t47 4.5t36.5 9t24 19t17 29t8.5 44t5 59t0.5 79q0 29 -3 53t-7 41.5t-13.5 31t-17 22.5t-23 14.5t-25.5 9t-31 5t-33 1.5h-38h-8q-36 0 -53.5 -0.5t-42 -3t-35 -7.5t-25 -15t-19.5 -24t-11.5 -35.5t-8 -49.5t-1.5 -66z" />
<glyph unicode="&#xf1;" horiz-adv-x="1101" d="M127 0v1022h192l21 -72q87 34 120.5 46.5t102 29t123.5 16.5q123 0 197.5 -63t74.5 -188v-791h-231v776q0 80 -78 80q-50 0 -134.5 -16.5t-156.5 -44.5v-795h-231zM238 1194q35 64 86 105.5t108 41.5q44 0 124.5 -36.5t98.5 -36.5q38 0 90 69q18 -13 107 -73 q-71 -142 -188 -142q-39 0 -113.5 37t-114.5 37q-22 0 -42.5 -18t-48.5 -51q-2 -3 -3.5 -5t-3.5 -4q-4 3 -41.5 32t-58.5 44z" />
<glyph unicode="&#xf2;" horiz-adv-x="1091" d="M98 512q0 111 6 185.5t24 138t47 99.5t79 62t116 35.5t162 9.5t163.5 -10t117.5 -36.5t80 -63.5t48 -100t24 -137t6 -183t-6 -183t-24 -137t-48 -100t-80 -63.5t-117.5 -36.5t-163.5 -10q-97 0 -164 10t-116.5 37t-78.5 63.5t-46.5 100.5t-23 136.5t-5.5 182.5zM326 512 q0 -86 2 -136t9.5 -97t20 -70t36.5 -41t56.5 -23.5t81.5 -5.5q37 0 64.5 3t49.5 12.5t37 21t26 34.5t17 47.5t9.5 66t4.5 83t1 105.5q0 87 -2 139.5t-10.5 99.5t-21.5 70.5t-37.5 41.5t-56.5 23t-81 5t-81.5 -5.5t-56.5 -24.5t-36.5 -42t-20 -71t-9.5 -99t-2 -137zM328 1470 l153 80l195 -350l-144 -76z" />
<glyph unicode="&#xf3;" horiz-adv-x="1091" d="M98 512q0 111 6 185.5t24 138t47 99.5t79 62t116 35.5t162 9.5t163.5 -10t117.5 -36.5t80 -63.5t48 -100t24 -137t6 -183t-6 -183t-24 -137t-48 -100t-80 -63.5t-117.5 -36.5t-163.5 -10q-97 0 -164 10t-116.5 37t-78.5 63.5t-46.5 100.5t-23 136.5t-5.5 182.5zM326 512 q0 -86 2 -136t9.5 -97t20 -70t36.5 -41t56.5 -23.5t81.5 -5.5q37 0 64.5 3t49.5 12.5t37 21t26 34.5t17 47.5t9.5 66t4.5 83t1 105.5q0 87 -2 139.5t-10.5 99.5t-21.5 70.5t-37.5 41.5t-56.5 23t-81 5t-81.5 -5.5t-56.5 -24.5t-36.5 -42t-20 -71t-9.5 -99t-2 -137zM401 1202 l195 350l154 -79l-205 -347z" />
<glyph unicode="&#xf4;" horiz-adv-x="1095" d="M100 512q0 111 6 185.5t24 138t47.5 100t79.5 62t116 35t162 9.5t163.5 -10t117.5 -36.5t79.5 -63.5t47.5 -100.5t24 -137t6 -182.5t-6 -182.5t-24 -137t-47.5 -100.5t-79.5 -63.5t-117.5 -36.5t-163.5 -10q-97 0 -164 10t-117 37t-79 63.5t-46.5 100.5t-23 136.5 t-5.5 182.5zM213 1245l330 256l321 -260l-100 -119l-225 178l-238 -176zM328 512q0 -63 1 -105t4.5 -83.5t9.5 -66t17 -47.5t25.5 -34.5t37 -21t49 -12.5t63.5 -3t64 3t49.5 12.5t37 21t25.5 35t17 47.5t9.5 66t4.5 83t1 105q0 87 -2 139.5t-10 99.5t-21 70.5t-37.5 41.5 t-56.5 23t-81 5q-42 0 -71.5 -5.5t-52.5 -15t-37.5 -31.5t-24 -47t-14 -69.5t-6 -91t-1.5 -119.5z" />
<glyph unicode="&#xf5;" horiz-adv-x="1091" d="M98 512q0 111 6 185.5t24 138t47 99.5t79 62t116 35.5t162 9.5t163.5 -10t117.5 -36.5t80 -63.5t48 -100t24 -137t6 -183t-6 -183t-24 -137t-48 -100t-80 -63.5t-117.5 -36.5t-163.5 -10q-97 0 -164 10t-116.5 37t-78.5 63.5t-46.5 100.5t-23 136.5t-5.5 182.5zM217 1194 q34 64 86 105.5t109 41.5q44 0 124.5 -36.5t98.5 -36.5q38 0 90 69q36 -26 106 -73q-71 -142 -188 -142q-39 0 -113 37t-114 37q-16 0 -35.5 -13.5t-29.5 -24.5t-34 -40q-4 3 -41.5 32t-58.5 44zM326 512q0 -86 2 -136t9.5 -97t20 -70t36.5 -41t56.5 -23.5t81.5 -5.5 q37 0 64.5 3t49.5 12.5t37 21t26 34.5t17 47.5t9.5 66t4.5 83t1 105.5q0 87 -2 139.5t-10.5 99.5t-21.5 70.5t-37.5 41.5t-56.5 23t-81 5t-81.5 -5.5t-56.5 -24.5t-36.5 -42t-20 -71t-9.5 -99t-2 -137z" />
<glyph unicode="&#xf6;" horiz-adv-x="1091" d="M98 512q0 111 6 185.5t24 138t47 99.5t79 62t116 35.5t162 9.5t163.5 -10t117.5 -36.5t80 -63.5t48 -100t24 -137t6 -183t-6 -183t-24 -137t-48 -100t-80 -63.5t-117.5 -36.5t-163.5 -10q-97 0 -164 10t-116.5 37t-78.5 63.5t-46.5 100.5t-23 136.5t-5.5 182.5zM225 1243 q0 71 19.5 91t95.5 20q75 0 96 -20t21 -91q0 -66 -21 -87t-96 -21q-76 0 -95.5 20t-19.5 88zM326 512q0 -86 2 -136t9.5 -97t20 -70t36.5 -41t56.5 -23.5t81.5 -5.5q37 0 64.5 3t49.5 12.5t37 21t26 34.5t17 47.5t9.5 66t4.5 83t1 105.5q0 87 -2 139.5t-10.5 99.5 t-21.5 70.5t-37.5 41.5t-56.5 23t-81 5t-81.5 -5.5t-56.5 -24.5t-36.5 -42t-20 -71t-9.5 -99t-2 -137zM592 1243q0 71 19 91t94 20q76 0 97 -20t21 -91q0 -67 -20 -87.5t-98 -20.5q-74 0 -93.5 20t-19.5 88z" />
<glyph unicode="&#xf7;" horiz-adv-x="1083" d="M100 420v207h863v-207h-863zM389 866q0 87 24 109t117 22q88 0 115 -19t27 -87q0 -40 -1 -62.5t-7 -42.5t-13.5 -28.5t-25.5 -15t-38.5 -8t-56.5 -1.5q-96 0 -118.5 22t-22.5 111zM391 168q0 88 23 109.5t116 21.5q90 0 116 -18t26 -86q0 -40 -1 -62.5t-6.5 -43 t-13.5 -29t-25.5 -15.5t-38.5 -8.5t-57 -1.5q-94 0 -116.5 22t-22.5 111z" />
<glyph unicode="&#xf8;" horiz-adv-x="1091" d="M98 512q0 111 6 185.5t24 138t47 99.5t79 62t116 35.5t162 9.5q41 0 103 -4l29 92h106l-33 -108q141 -34 187.5 -145t46.5 -365q0 -109 -6 -183t-24 -137t-48 -100t-80 -63.5t-117.5 -36.5t-163.5 -10q-62 0 -114 6l-23 -78h-102l26 92q-47 12 -81.5 32t-59 52t-40.5 70 t-24.5 94t-12 117t-3.5 145zM326 512q0 -151 9.5 -223t39.5 -107l215 707q-18 2 -58 2q-49 0 -81.5 -5.5t-56.5 -24.5t-36.5 -42t-20 -71t-9.5 -99t-2 -137zM467 141q18 -2 65 -2q37 0 64.5 3t49.5 12.5t37 21t26 34.5t17 47.5t9.5 66t4.5 83t1 105.5q0 157 -11 232t-46 108 z" />
<glyph unicode="&#xf9;" horiz-adv-x="1101" d="M121 229v793h231v-776q0 -82 78 -82q49 0 133.5 17t157.5 46v795h231v-1024h-192l-21 74q-75 -30 -118 -46t-107.5 -31t-120.5 -15q-124 0 -198 62t-74 187zM342 1470l154 80l194 -350l-143 -76z" />
<glyph unicode="&#xfa;" horiz-adv-x="1101" d="M121 229v793h231v-776q0 -82 78 -82q49 0 133.5 17t157.5 46v795h231v-1024h-192l-21 74q-75 -30 -118 -46t-107.5 -31t-120.5 -15q-124 0 -198 62t-74 187zM412 1204l194 350l154 -79l-205 -347z" />
<glyph unicode="&#xfb;" horiz-adv-x="1101" d="M121 229v793h231v-776q0 -82 78 -82q49 0 133.5 17t157.5 46v795h231v-1024h-192l-21 74q-75 -30 -118 -46t-107.5 -31t-120.5 -15q-124 0 -198 62t-74 187zM227 1251l330 256l322 -260l-101 -119l-225 179l-238 -177z" />
<glyph unicode="&#xfc;" horiz-adv-x="1101" d="M121 229v793h231v-776q0 -82 78 -82q49 0 133.5 17t157.5 46v795h231v-1024h-192l-21 74q-75 -30 -118 -46t-107.5 -31t-120.5 -15q-124 0 -198 62t-74 187zM252 1243q0 71 19.5 91t95.5 20q75 0 95.5 -20t20.5 -91q0 -66 -20.5 -87t-95.5 -21q-76 0 -95.5 20t-19.5 88z M618 1243q0 71 19 91t94 20q76 0 97.5 -20t21.5 -91q0 -35 -3 -53t-15.5 -32t-36 -18.5t-64.5 -4.5q-74 0 -93.5 20t-19.5 88z" />
<glyph unicode="&#xfd;" horiz-adv-x="1030" d="M20 1024h238l248 -776l248 776h237l-473 -1413h-209l123 389h-61zM381 1200l194 350l154 -80l-205 -346z" />
<glyph unicode="&#xfe;" horiz-adv-x="1056" d="M127 -389v1806h223v-411q57 14 132.5 24t119.5 10q185 0 261.5 -104.5t76.5 -351.5q0 -98 -3.5 -165t-13.5 -135t-29 -111.5t-50 -82.5t-76.5 -60.5t-107.5 -33.5t-144 -12q-72 0 -164 6v-379h-225zM352 158q43 -2 152 -2h8q49 0 82.5 9t55.5 36.5t34 52.5t17.5 83.5 t6.5 102t1 133.5q0 70 -2.5 112.5t-11.5 81.5t-26 58.5t-45.5 31t-70.5 11.5q-79 0 -201 -28v-682z" />
<glyph unicode="&#xff;" horiz-adv-x="1030" d="M20 1024h238l248 -776l248 776h237l-473 -1413h-209l123 389h-61zM236 1243q0 71 19 91t95 20q75 0 96 -20t21 -91q0 -66 -21 -87t-96 -21q-76 0 -95 20t-19 88zM602 1243q0 71 19 91t94 20q76 0 97.5 -20t21.5 -91q0 -35 -3 -53t-15.5 -32t-36 -18.5t-64.5 -4.5 q-74 0 -93.5 20t-19.5 88z" />
<glyph unicode="&#x152;" horiz-adv-x="1828" d="M104 688q0 86 2.5 151t10 130t20.5 111.5t33 90.5t48.5 73.5t67 54.5t89 39.5t113 22t139.5 7.5h1069v-178h-623v-404h569v-182h-569v-430h623v-174h-1069q-61 2 -102 4.5t-94 11.5t-89 23t-75.5 40t-65 62.5t-47 89.5t-31.5 121q-19 133 -19 336zM348 688 q0 -185 10 -287t37 -151q16 -27 43 -43.5t64.5 -23t62 -8t64.5 -1.5h207v1018h-207q-43 0 -71 -2.5t-59 -10.5t-49.5 -22.5t-37.5 -40t-29.5 -62t-19 -89t-12 -120.5t-3.5 -157z" />
<glyph unicode="&#x153;" horiz-adv-x="1726" d="M98 512q0 111 6 185.5t24 138t47 99.5t79 62t116 35.5t162 9.5q237 0 330 -86q45 50 122.5 70.5t205.5 20.5q94 0 160.5 -11.5t115 -42t77 -72t45.5 -112.5t22.5 -152t5.5 -202l-627 -6v-48q0 -85 14 -136.5t48.5 -78.5t77.5 -35t116 -8q103 0 309 21v-144 q-223 -38 -401 -38q-208 0 -287 92q-48 -50 -127.5 -71t-206.5 -21q-72 0 -127 5.5t-100 20t-76.5 34t-55 52t-37.5 70t-23 93t-12 115t-3 140.5zM326 512q0 -72 1.5 -118.5t6 -90.5t14.5 -68.5t24 -45.5t37 -30.5t52 -14.5t71 -5q38 0 65 3t50 12.5t37.5 21t26 34.5 t17.5 47.5t9.5 66.5t4.5 83t1 105q0 65 -1 108t-5 85.5t-10 67t-17.5 48t-26 35t-37 20.5t-49.5 12t-65 3q-49 0 -81 -5.5t-56 -24t-36.5 -42.5t-20.5 -71.5t-10 -99t-2 -136.5zM989 608h406q-2 76 -7.5 121t-17 80t-35.5 51t-57.5 23.5t-87.5 7.5q-122 0 -162 -58 q-30 -42 -36 -162q-1 -19 -3 -63z" />
<glyph unicode="&#x178;" horiz-adv-x="1144" d="M-12 1368h268l293 -670l299 670h268l-446 -922v-446h-242v446zM258 1595q0 71 19.5 91t95.5 20q75 0 95.5 -20t20.5 -91q0 -66 -20.5 -87t-95.5 -21q-76 0 -95.5 20t-19.5 88zM625 1595q0 71 18.5 91t93.5 20q76 0 97.5 -20t21.5 -91q0 -35 -3 -53t-15.5 -32t-36 -18.5 t-64.5 -4.5q-74 0 -93 20t-19 88z" />
<glyph unicode="&#x2c6;" horiz-adv-x="854" d="M86 1141l330 256l321 -260l-100 -119l-225 178l-238 -176z" />
<glyph unicode="&#x2dc;" horiz-adv-x="882" d="M119 1194q35 64 86 105.5t108 41.5q44 0 125 -36.5t99 -36.5q38 0 90 69q36 -26 106 -73q-71 -142 -188 -142q-39 0 -113.5 37t-114.5 37q-22 0 -42.5 -18t-48.5 -51q-2 -3 -3.5 -5t-3.5 -4q-4 3 -41.5 32t-58.5 44z" />
<glyph unicode="&#x2000;" horiz-adv-x="961" />
<glyph unicode="&#x2001;" horiz-adv-x="1923" />
<glyph unicode="&#x2002;" horiz-adv-x="961" />
<glyph unicode="&#x2003;" horiz-adv-x="1923" />
<glyph unicode="&#x2004;" horiz-adv-x="641" />
<glyph unicode="&#x2005;" horiz-adv-x="480" />
<glyph unicode="&#x2006;" horiz-adv-x="320" />
<glyph unicode="&#x2007;" horiz-adv-x="320" />
<glyph unicode="&#x2008;" horiz-adv-x="240" />
<glyph unicode="&#x2009;" horiz-adv-x="384" />
<glyph unicode="&#x200a;" horiz-adv-x="106" />
<glyph unicode="&#x2010;" horiz-adv-x="784" d="M113 479v183h534v-183h-534z" />
<glyph unicode="&#x2011;" horiz-adv-x="784" d="M113 479v183h534v-183h-534z" />
<glyph unicode="&#x2012;" horiz-adv-x="784" d="M113 479v183h534v-183h-534z" />
<glyph unicode="&#x2013;" horiz-adv-x="1003" d="M113 479v189h747v-189h-747z" />
<glyph unicode="&#x2014;" horiz-adv-x="1286" d="M113 479v189h1038v-189h-1038z" />
<glyph unicode="&#x2018;" horiz-adv-x="481" d="M86 1016q0 100 51 166t166 133l68 -101q-57 -30 -80 -73q45 -9 58 -35.5t13 -89.5q0 -81 -22.5 -102t-116.5 -21q-92 0 -114.5 21t-22.5 102z" />
<glyph unicode="&#x2019;" horiz-adv-x="464" d="M90 1008q59 30 78 73q-43 9 -56.5 35.5t-13.5 89.5q0 81 23 102t117 21q91 0 114 -21t23 -102q0 -100 -51.5 -166.5t-167.5 -132.5z" />
<glyph unicode="&#x201a;" horiz-adv-x="499" d="M94 -70q59 34 80 74q-45 9 -58.5 35.5t-13.5 89.5q0 80 23.5 101.5t116.5 21.5q92 0 114.5 -21t22.5 -102q0 -99 -51.5 -166t-165.5 -131z" />
<glyph unicode="&#x201c;" horiz-adv-x="823" d="M86 1018q0 99 51.5 166t165.5 131l68 -98q-61 -35 -78 -76q43 -7 56 -33.5t13 -89.5q0 -44 -3.5 -65t-18.5 -36.5t-41 -19.5t-76 -4q-91 0 -114 22t-23 103zM440 1018q0 99 51.5 166t165.5 131l68 -98q-60 -34 -80 -76q45 -7 58.5 -33.5t13.5 -89.5q0 -44 -3.5 -65 t-18.5 -36.5t-41 -19.5t-76 -4q-92 0 -115 22t-23 103z" />
<glyph unicode="&#x201d;" horiz-adv-x="804" d="M88 1001q55 30 78 74q-43 9 -56.5 35.5t-13.5 89.5q0 81 22.5 102t114.5 21q93 0 116.5 -21.5t23.5 -101.5q0 -100 -51.5 -166.5t-167.5 -132.5zM440 1001q57 29 80 74q-45 9 -58 35.5t-13 89.5q0 81 23 102t116 21q92 0 114.5 -21t22.5 -102q0 -100 -51 -166t-166 -133z " />
<glyph unicode="&#x201e;" horiz-adv-x="839" d="M94 -70q59 34 80 74q-45 9 -58.5 35.5t-13.5 89.5q0 80 23.5 101.5t116.5 21.5q92 0 114.5 -21t22.5 -102q0 -99 -51.5 -166t-165.5 -131zM446 -70q59 34 80 74q-45 9 -58 35.5t-13 89.5q0 81 23 102t116 21q92 0 114.5 -21t22.5 -102q0 -99 -51.5 -166t-165.5 -131z" />
<glyph unicode="&#x2022;" horiz-adv-x="831" d="M143 664q0 106 75.5 182t182.5 76q106 0 182 -76t76 -182q0 -107 -76 -182.5t-182 -75.5q-107 0 -182.5 75.5t-75.5 182.5z" />
<glyph unicode="&#x2026;" horiz-adv-x="1398" d="M100 127q0 57 9 81t37 34t94 10q93 0 117 -21t24 -104q0 -43 -3.5 -65t-18.5 -39t-42.5 -22t-76.5 -5t-75.5 5t-41.5 21.5t-19 38.5t-4 66zM547 127q0 44 3.5 65t19 36.5t41.5 19.5t77 4q92 0 115.5 -21t23.5 -104q0 -82 -23.5 -106.5t-115.5 -24.5q-94 0 -117.5 24 t-23.5 107zM983 127q0 81 23.5 103t117.5 22q93 0 117.5 -21t24.5 -104q0 -43 -4 -65t-19 -39t-42.5 -22t-76.5 -5q-93 0 -117 24.5t-24 106.5z" />
<glyph unicode="&#x202f;" horiz-adv-x="384" />
<glyph unicode="&#x2039;" horiz-adv-x="618" d="M68 510l284 430l170 -106l-211 -324l211 -320l-170 -108z" />
<glyph unicode="&#x203a;" horiz-adv-x="618" d="M82 190l211 320l-211 324l170 106l285 -430l-285 -428z" />
<glyph unicode="&#x205f;" horiz-adv-x="480" />
<glyph unicode="&#x20ac;" horiz-adv-x="1290" d="M76 467v108h172v39v72h-172v109h172q3 107 13 185.5t33 148.5t60.5 116t95.5 80t138.5 49t187.5 15q39 0 170.5 -10t241.5 -25v-166q-310 26 -377 26t-115 -8.5t-84 -30.5t-58.5 -52t-37 -80t-21.5 -107.5t-10 -140.5h519v-109h-521v-82v-29h521v-108h-519 q4 -53 12.5 -94t17.5 -73t30.5 -55t36.5 -39t50.5 -26.5t57.5 -16t73.5 -8t82.5 -3t99 -0.5h20q39 1 115.5 4t115.5 4v-142q-172 -36 -420 -36q-79 0 -135.5 4.5t-112 16.5t-92.5 34.5t-70.5 58t-54.5 87.5t-35.5 122t-21.5 162h-178z" />
<glyph unicode="&#x2122;" horiz-adv-x="1093" d="M113 1298v80h348v-80h-125v-362h-98v362h-125zM510 936v442h113l104 -229l109 229h110v-442h-96v258l-84 -180h-76l-80 180v-258h-100z" />
<glyph unicode="&#x25fc;" horiz-adv-x="1024" d="M0 0v1024h1024v-1024h-1024z" />
</font>
</defs>
</svg>
